<?xml version="1.0" encoding="UTF-8" standalone="no"?>
<!-- Created with Inkscape (http://www.inkscape.org/) -->

<svg
   xmlns:dc="http://purl.org/dc/elements/1.1/"
   xmlns:cc="http://creativecommons.org/ns#"
   xmlns:rdf="http://www.w3.org/1999/02/22-rdf-syntax-ns#"
   xmlns:svg="http://www.w3.org/2000/svg"
   xmlns="http://www.w3.org/2000/svg"
   xmlns:sodipodi="http://sodipodi.sourceforge.net/DTD/sodipodi-0.dtd"
   xmlns:inkscape="http://www.inkscape.org/namespaces/inkscape"
   width="128.50316"
   height="118.66608"
   id="svg3212"
   version="1.1"
   inkscape:version="0.48.4 r9939"
   sodipodi:docname="New document 2">
  <defs
     id="defs3214" />
  <sodipodi:namedview
     id="base"
     pagecolor="#ffffff"
     bordercolor="#666666"
     borderopacity="1.0"
     inkscape:pageopacity="0.0"
     inkscape:pageshadow="2"
     inkscape:zoom="0.35"
     inkscape:cx="427.82301"
     inkscape:cy="-177.80982"
     inkscape:document-units="px"
     inkscape:current-layer="layer1"
     showgrid="false"
     fit-margin-top="0"
     fit-margin-left="0"
     fit-margin-right="0"
     fit-margin-bottom="0"
     inkscape:window-width="1366"
     inkscape:window-height="744"
     inkscape:window-x="0"
     inkscape:window-y="24"
     inkscape:window-maximized="1" />
  <metadata
     id="metadata3217">
    <rdf:RDF>
      <cc:Work
         rdf:about="">
        <dc:format>image/svg+xml</dc:format>
        <dc:type
           rdf:resource="http://purl.org/dc/dcmitype/StillImage" />
        <dc:title></dc:title>
      </cc:Work>
    </rdf:RDF>
  </metadata>
  <g
     inkscape:label="Layer 1"
     inkscape:groupmode="layer"
     id="layer1"
     transform="translate(52.823011,-235.88628)">
    <path
       inkscape:connector-curvature="0"
       id="path5892"
       d="m 69.400669,353.26989 c -4.48575,-2.1096 -9.34264,-3.5551 -14.4899,-4.3124 -6.68515,-0.9835 -18.755859,-0.4098 -26.243829,1.2473 -2.98035,0.6596 -3.80032,0.632 -4.15199,-0.1399 -0.24616,-0.5402 -0.17358,-0.7678 0.60569,-1.899 0.48697,-0.7068 1.33189,-1.721 1.87762,-2.2537 0.56747,-0.554 0.99225,-1.2002 0.99225,-1.5095 0,-0.4791 -0.2454,-0.5974 -2.14752,-1.0354 -7.17917,-1.6529 -15.74926,-2.2904 -21.6893399,-1.6133 -3.58055999,0.4081 -7.73785,1.3189 -9.42336,2.0645 l -1.09426,0.4841 1.16223,1.2891 c 2.42465,2.6893 2.792,3.7595 1.58331,4.6126 -0.4993,0.3525 -0.83913,0.3954 -1.83773,0.2322 -7.9427101,-1.2983 -13.6482701,-1.6731 -21.9302301,-1.4409 -7.61395,0.2135 -13.12424,1.2687 -19.08234,3.6542 -1.66805,0.6679 -3.24093,1.2143 -3.49528,1.2143 -1.19282,0 -1.75517,-2.4977 -1.15133,-5.1136 0.27991,-1.2127 0.27089,-1.2496 -0.62018,-2.5434 -1.0079,-1.4635 -1.33588,-2.7794 -0.89706,-3.5994 0.56967,-1.0644 5.51748,-2.7964 11.89202,-4.1629 2.49167,-0.5341 9.4885,-1.4669 11.27141,-1.5026 1.9504,-0.039 1.98076,-0.1463 0.64204,-2.2663 -0.66151,-1.0476 -1.73817,-2.4795 -2.39258,-3.182 -2.47781,-2.66 -3.23148,-3.6956 -3.86545,-5.3115 -0.35928,-0.9157 -0.87254,-1.8634 -1.14059,-2.106 -0.60566,-0.5481 -1.79018,-2.6302 -2.1641,-3.8039 -0.1542,-0.4841 -0.52773,-1.0952 -0.83007,-1.358 -0.71015,-0.6175 -2.53251,-4.2676 -2.91962,-5.848 -0.16506,-0.6738 -0.72885,-1.917 -1.25286,-2.7627 -1.29493,-2.0897 -1.66524,-3.4448 -1.62212,-5.9359 0.0253,-1.4609 -0.12524,-2.6953 -0.50418,-4.1345 -0.47364,-1.7989 -0.50883,-2.2635 -0.28541,-3.7687 0.21436,-1.4443 0.19401,-1.8097 -0.12818,-2.3014 -0.53605,-0.8182 -0.52719,-3.4063 0.0152,-4.4452 0.32217,-0.6171 0.38483,-1.1333 0.26767,-2.2053 -0.11057,-1.0117 -0.0457,-1.6521 0.23392,-2.3106 0.21278,-0.5011 0.38688,-1.3077 0.38688,-1.7926 0,-0.4849 0.13172,-1.1224 0.29271,-1.4168 0.161,-0.2944 0.3172,-1.4877 0.34712,-2.6519 0.0591,-2.3012 0.25763,-2.8537 1.70751,-4.7531 0.60943,-0.7984 1.27812,-2.2682 2.07935,-4.5705 1.6347,-4.6972 2.77538,-6.6105 5.65281,-9.4817 1.29857,-1.2958 2.55603,-2.7418 2.79436,-3.2135 1.0158,-2.0104 2.78052,-3.9923 5.11598,-5.7455 0.66288,-0.4977 1.51899,-1.3995 1.90244,-2.0042 0.8505,-1.3411 1.15096,-1.6556 3.01101,-3.1523 1.6543,-1.3311 3.6094,-2.3237 4.58388,-2.3273 0.36098,0 0.80218,-0.1402 0.98044,-0.3087 2.04606,-1.9334 4.17388,-3.0665 6.2042,-3.3037 0.9813501,-0.1146 1.3968701,-0.3182 2.0880801,-1.0231 0.71578,-0.73 1.32157,-1.0136 3.55294,-1.6635 4.62931001,-1.3483 4.70621001,-1.3616 5.97779,-1.0358 1.04121,0.2669 1.30986,0.2384 2.73148,-0.29 1.47998,-0.5501 1.89237,-0.5858 6.7223399,-0.5814 4.16863,0 5.40817,0.085 6.52825,0.428 1.08845,0.3332 1.85449,0.3898 3.6004,0.2659 2.52362,-0.1791 3.3814,-0.01 7.60428,1.5075 1.56033,0.5604 2.28489,0.9753 2.95394,1.6915 0.63762,0.6825 1.86248,1.122 3.13316,1.1242 1.03327,0 3.37204,0.8804 4.60351,1.7294 0.53907,0.3716 1.95574,1.6167 3.14818,2.7669 1.48907,1.4363 2.50051,2.2045 3.22967,2.4529 1.28565,0.4381 3.633709,2.0125 4.675279,3.135 1.00213,1.0799 2.7911,3.5531 2.7911,3.8586 0,0.1324 0.72382,0.8263 1.60845,1.5419 1.82043,1.4727 4.63988,5.4362 5.49741,7.7282 0.32957,0.8809 0.93888,1.7905 1.74721,2.6084 2.63641,2.6677 4.20385,5.7982 4.12544,8.2393 -0.0549,1.7095 -0.0323,1.7992 0.63798,2.522 1.35076,1.4567 2.11888,4.2848 1.595,5.8722 -0.2327,0.7051 -0.21111,1.0408 0.12017,1.8687 0.23361,0.5839 0.35784,1.3964 0.29477,1.9277 -0.06,0.5052 0.0384,1.2738 0.21866,1.708 0.18025,0.4341 0.32562,1.1508 0.32308,1.5927 -0.002,0.4417 -0.003,2.0712 -0.002,3.6211 0.002,1.5498 -0.11502,3.3989 -0.25917,4.1091 -0.14415,0.7103 -0.19397,1.6016 -0.11066,1.9809 0.17726,0.807 -0.39249,3.7491 -1.25446,6.4777 -0.40261,1.2746 -0.88943,2.2352 -1.4434,2.8484 -0.81198,0.8988 -0.8319,0.97 -0.69672,2.4945 0.12928,1.458 0.0781,1.6831 -0.72147,3.1733 -0.47332,0.8822 -1.2669,2.6191 -1.76348,3.8599 -0.73578,1.8382 -1.12075,2.4517 -2.07972,3.3139 -0.74803,0.6725 -1.44806,1.6321 -1.92119,2.6334 -1.02195,2.1629 -3.36971,5.8493 -4.16121,6.5337 -1.20584,1.0429 -1.50995,1.3744 -1.50995,1.6461 0,0.1487 -0.38019,1.0636 -0.84486,2.0333 -0.4647,0.9696 -0.75982,1.8155 -0.65583,1.8798 0.10397,0.064 1.17333,0.2335 2.37631,0.3761 1.203,0.1426 3.17964,0.434 4.39254,0.6474 5.59726,0.9854 16.78038,4.4857 17.11472,5.357 0.2896,0.7546 -0.35951,2.0832 -1.45737,2.9828 -1.99214,1.6324 -2.22536,2.761 -1.16977,5.6613 0.52672,1.4471 0.58915,1.8423 0.33873,2.144 -0.4722,0.569 -0.89005,0.4667 -3.92245,-0.9594 z m 2.6938,-0.3246 c -0.004,-0.4768 -3.20228,-1.8211 -7.71692,-3.2434 -3.54824,-1.118 -4.72338,-1.4138 -7.96349,-2.0048 -2.68025,-0.4888 -3.87408,-0.5594 -9.556199,-0.565 -3.7987,0 -7.91686,0.1354 -9.92373,0.3352 -1.88674,0.1878 -3.65096,0.3546 -3.92049,0.3705 -1.1291,0.067 -5.26816,0.9865 -5.26816,1.1706 0,0.2847 0.61317,0.2436 2.57282,-0.1727 3.61501,-0.768 9.19068,-1.1859 16.0495,-1.203 7.120219,-0.018 9.420419,0.2274 14.643029,1.5608 2.6344,0.6727 8.19688,2.6 9.57479,3.3175 1.22956,0.6404 1.51127,0.7214 1.50885,0.4343 z M -47.8054,351.39819 c 0.86798,-0.33 4.32501,-1.2293 8.35074,-2.1723 3.59418,-0.8419 9.71825,-1.4879 14.09337,-1.4867 3.43364,0 8.80219,0.3083 15.4446901,0.884 4.06661,0.3525 5.17358,0.3516 4.80758,0 -0.0562,-0.054 -3.41002,-0.3808 -7.4530201,-0.7251 -6.16781,-0.5252 -8.37627,-0.6101 -13.72171,-0.5277 -7.08122,0.1091 -8.60121,0.2925 -15.23337,1.8378 -4.36763,1.0176 -7.08762,1.8506 -7.33143,2.2451 -0.17477,0.2828 0.21508,0.2636 1.04315,-0.051 z m 118.456069,-2.6489 -0.0597,-1.807 1.36947,-1.2644 c 1.1836,-1.0928 1.32731,-1.3197 1.05881,-1.672 -0.4981,-0.6537 -5.52113,-2.2823 -11.45954,-3.7155 -6.36259,-1.5356 -8.96072,-1.9596 -13.76749,-2.2468 -2.830689,-0.1692 -2.877189,-0.1633 -4.042999,0.5118 -0.64867,0.3757 -1.39991,0.839 -1.66944,1.0296 -0.47499,0.3359 -0.47124,0.3452 0.12251,0.3024 0.33692,-0.024 0.80554,-0.032 1.04138,-0.017 0.47095,0.03 1.40893,0.8635 1.40893,1.2523 0,0.3764 -0.96961,0.2905 -1.38268,-0.1225 -0.41646,-0.4165 -0.7902,-0.4582 -1.2871,-0.1435 -0.59057,0.3739 -0.10142,0.9452 0.96341,1.1251 0.56271,0.095 1.23197,0.3817 1.48726,0.637 1.43649,1.4365 -0.8256,3.3136 -2.83721,2.3543 -1.00408,-0.4788 -1.33304,-1.4001 -0.49991,-1.4001 0.30989,0 0.62961,0.1724 0.71047,0.3832 0.22653,0.5903 1.74312,0.3774 1.74312,-0.2447 0,-0.3625 -0.28242,-0.5461 -1.20082,-0.7804 -1.39114,-0.3548 -1.66194,-0.6565 -1.55327,-1.73 0.0496,-0.4901 -0.0157,-0.7238 -0.17623,-0.6299 -0.61052,0.3571 -2.1105,1.5054 -3.93053,3.0087 -1.07814,0.8906 -2.53901,1.9425 -3.24641,2.3376 -1.4004,0.7822 -1.67866,1.2319 -0.61282,0.9904 0.3706,-0.084 3.26503,-0.3371 6.43205,-0.5625 4.86731,-0.3464 6.42166,-0.3656 10.046249,-0.1238 3.93612,0.2625 8.31991,0.8565 11.39392,1.5439 2.05424,0.4593 6.94544,1.9357 8.03685,2.4259 1.78456,0.8014 1.98098,0.6533 1.91173,-1.442 z m -3.07092,0.1861 c -0.79936,-0.258 -1.48726,-0.5031 -1.52869,-0.5445 -0.0681,-0.068 1.37308,-4.5906 1.52053,-4.7717 0.0341,-0.042 0.85242,0.1639 1.81845,0.4573 1.31873,0.4005 1.72207,0.623 1.61862,0.8925 -0.0758,0.1975 -0.1378,0.3993 -0.1378,0.4484 0,0.049 -0.56688,-0.079 -1.25973,-0.2848 -1.04111,-0.3092 -1.29562,-0.3176 -1.46643,-0.048 -0.35525,0.5604 -0.24594,0.6786 0.89259,0.9653 1.22217,0.3077 1.40452,0.4583 1.11742,0.9228 -0.15207,0.2461 -0.41332,0.2544 -1.21464,0.039 -1.13121,-0.3046 -1.49964,-0.1932 -1.49964,0.4536 0,0.3019 0.35123,0.5416 1.16282,0.7937 0.70826,0.2199 1.1942,0.5241 1.24311,0.7781 0.1021,0.5302 -0.37727,0.5088 -2.26661,-0.1012 z m -5.05422,-1.5576 c -0.95302,-0.5184 -1.26533,-1.4114 -0.94231,-2.6942 0.14815,-0.5883 0.48217,-1.2981 0.74227,-1.5773 0.89434,-0.96 2.45535,-0.9679 3.40595,-0.017 0.49065,0.4906 0.67337,1.709 0.2563,1.709 -0.29237,0 -0.99762,-0.702 -0.99762,-0.993 0,-0.1225 -0.28009,-0.2931 -0.62245,-0.379 -0.80017,-0.2009 -1.52144,0.4281 -1.72298,1.5023 -0.27698,1.4765 0.66328,2.2725 1.82624,1.5462 0.24986,-0.156 0.66185,-0.203 0.91553,-0.1045 0.42545,0.1652 0.40785,0.2253 -0.22624,0.7738 -0.76716,0.6635 -1.6937,0.7458 -2.63469,0.234 z m -2.56292,-0.6192 c -0.34713,-0.1317 -0.63362,-0.6742 -0.96162,-1.8211 -0.25694,-0.8985 -0.5459,-1.6823 -0.64215,-1.7418 -0.0963,-0.059 -0.31001,0.6075 -0.47507,1.4822 -0.20158,1.0684 -0.4141,1.5903 -0.64754,1.5903 -0.57798,0 -0.60363,-0.5157 -0.14033,-2.8192 0.40839,-2.0304 0.48898,-2.204 1.02391,-2.204 0.50775,0 0.66242,0.2452 1.23248,1.9539 l 0.65188,1.9538 0.31165,-1.5863 c 0.37527,-1.9099 0.39078,-1.9388 0.9619,-1.7894 0.43715,0.1143 0.43502,0.2006 -0.0626,2.5304 -0.28335,1.3267 -0.56984,2.4631 -0.63663,2.5254 -0.0668,0.062 -0.34393,0.029 -0.61589,-0.074 z m -6.67269,-1.2922 c -0.91943,-0.1767 -1.28539,-0.3598 -1.28279,-0.6416 0.003,-0.3392 0.19007,-1.2373 0.86516,-4.1563 0.11964,-0.5173 0.22658,-0.5598 1.0412,-0.4138 1.95228,0.3498 2.7456,0.6457 2.7456,1.0238 0,0.3227 -0.22879,0.3557 -1.47019,0.2116 -1.37156,-0.1592 -1.47018,-0.1372 -1.47018,0.3284 0,0.4037 0.21082,0.5308 1.10264,0.6645 0.88715,0.133 1.10263,0.2618 1.10263,0.6589 0,0.497 -0.2502,0.5101 -2.28321,0.1191 -0.1593,-0.031 -0.3245,0.2475 -0.36713,0.6181 -0.0594,0.5159 0.0268,0.6742 0.36754,0.6752 0.91882,0 2.2828,0.5213 2.2828,0.8678 0,0.4085 -0.67993,0.42 -2.63407,0.044 z m -7.093879,-0.7917 c -1.62801,-1.1403 -1.09622,-4.4497 0.79113,-4.9234 1.179129,-0.296 2.811059,0.5712 2.811059,1.4937 0,0.5399 -0.91987,0.448 -1.22515,-0.1225 -0.32832,-0.6135 -1.26282,-0.6352 -1.799749,-0.042 -0.45649,0.5044 -0.53454,1.7933 -0.15187,2.5083 0.33628,0.6284 1.394419,0.6112 1.914499,-0.031 0.57653,-0.712 1.33767,-0.4185 0.97558,0.3762 -0.47866,1.0505 -2.29412,1.4561 -3.315499,0.7407 z m 4.337279,-2.2045 0,-2.5728 0.63426,0 c 0.63284,0 0.63395,0 0.50107,1.6539 -0.0733,0.9097 -0.13815,2.0675 -0.1442,2.5729 -0.009,0.7518 -0.10007,0.9188 -0.50107,0.9188 -0.45894,0 -0.49006,-0.1633 -0.49006,-2.5728 z m -97.903919,7.2338 c 0.34664,-0.1318 1.86994,-0.5641 3.38512,-0.9607 8.44728,-2.2112 21.33445,-3.1597 30.02992,-2.2102 1.38984,0.1518 2.56731,0.2357 2.61659,0.1864 0.0493,-0.049 -1.02249,-0.9153 -2.38172,-1.9245 -1.35926,-1.0091 -3.58424,-2.9132 -4.9444,-4.2314 -1.36017,-1.3182 -2.73944,-2.4649 -3.06506,-2.5484 -0.87217,-0.2234 -7.73082,0.1004 -11.53697,0.5447 -1.81936,0.2123 -4.92225,0.7086 -6.89533,1.1027 -3.80799,0.7608 -9.82393,2.6373 -10.44456,3.2579 -0.33209,0.3321 -0.24985,0.5102 0.77376,1.6759 1.33604,1.5214 1.5397,2.1135 1.16134,3.3764 -0.57026,1.9033 -0.25489,2.3229 1.30131,1.7312 z m 1.52602,-3.6196 c -0.71747,-3.2493 -0.71152,-3.1722 -0.25832,-3.3461 0.59218,-0.2273 0.69655,-0.03 1.15658,2.1878 0.52306,2.5215 0.51659,2.8123 -0.0626,2.8123 -0.38134,0 -0.53958,-0.3132 -0.83563,-1.654 z m 1.8356,-1.0793 c -0.2945,-1.3685 -0.49975,-2.5239 -0.45611,-2.5675 0.0436,-0.044 0.29419,-0.1093 0.55676,-0.1459 0.31879,-0.044 0.91716,0.417 1.80091,1.3887 l 1.32349,1.4552 -0.15214,-0.8426 c -0.5175,-2.8661 -0.52034,-2.6804 0.0409,-2.6804 0.28717,0 0.52212,0.043 0.52212,0.096 0,0.053 0.22053,1.1674 0.49006,2.4773 0.26953,1.31 0.49006,2.4247 0.49006,2.4773 0,0.053 -0.26226,0.095 -0.58281,0.095 -0.40414,0 -0.93887,-0.4167 -1.74425,-1.3594 -0.63879,-0.7478 -1.21313,-1.3078 -1.27632,-1.2446 -0.0632,0.063 0.0158,0.7444 0.17555,1.5139 0.23771,1.145 0.23048,1.4371 -0.0398,1.6084 -0.18167,0.1151 -0.3939,0.211 -0.47163,0.2131 -0.0777,0 -0.38229,-1.116 -0.67679,-2.4845 z m 5.49624,0.7379 c -0.0673,-0.3176 -0.29828,-1.3946 -0.51319,-2.3934 -0.45289,-2.1046 -0.4422,-2.1212 1.52985,-2.3676 1.65329,-0.2065 2.38766,0.2325 2.77119,1.6568 0.53402,1.9832 -0.34454,3.2137 -2.51275,3.5192 -1.07265,0.1512 -1.16117,0.1223 -1.2751,-0.415 z m 2.48902,-1.005 c 0.40194,-0.3216 0.37944,-1.9059 -0.0348,-2.4516 -0.34624,-0.4561 -1.73333,-0.5937 -1.97893,-0.1963 -0.12143,0.1965 0.14847,1.7575 0.50288,2.9085 0.10519,0.3417 0.93753,0.1981 1.51085,-0.2606 z m 2.18234,-1.0917 c -0.27503,-2.9123 -0.22274,-3.5039 0.30972,-3.5039 0.40242,0 0.49279,0.2395 0.62406,1.654 0.30551,3.2917 0.30013,3.3624 -0.26169,3.4426 -0.46724,0.067 -0.52926,-0.08 -0.67209,-1.5927 z m 1.87341,1.0673 c 0.0695,-0.1813 0.37162,-1.2563 0.6713,-2.3891 0.59872,-2.2631 0.62061,-2.3038 1.36164,-2.5268 0.4531,-0.1364 0.63519,0.1092 1.53144,2.0657 0.55946,1.2212 1.0172,2.3811 1.0172,2.5775 0,0.5605 -1.00597,0.4337 -1.15753,-0.1459 -0.19144,-0.732 -1.80459,-0.5843 -2.14723,0.1967 -0.26631,0.607 -1.50737,0.8226 -1.27682,0.2219 z m 2.67637,-1.7675 c 0.17948,-0.1795 -0.35125,-1.5785 -0.59882,-1.5785 -0.10522,0 -0.19281,0.1378 -0.19465,0.3062 -0.002,0.1685 -0.0698,0.5544 -0.1511,0.8577 -0.11624,0.4337 -0.0459,0.5513 0.33006,0.5513 0.26279,0 0.53932,-0.062 0.61451,-0.1367 z m 2.80303,1.4231 c -0.0612,-0.1011 -0.19106,-1.2589 -0.28863,-2.5728 l -0.17741,-2.3891 0.58046,0.01 c 0.4366,0 0.8485,0.3991 1.66197,1.5927 0.59481,0.8728 1.11215,1.5869 1.14964,1.5869 0.0375,0 0.003,-0.7719 -0.0757,-1.7153 -0.13552,-1.6163 -0.11465,-1.7152 0.3623,-1.7152 0.44687,0 0.52337,0.1936 0.65375,1.654 0.0812,0.9097 0.18975,2.0674 0.2412,2.5728 0.0871,0.855 0.0484,0.9187 -0.55695,0.9167 -0.5254,0 -0.83242,-0.2845 -1.59635,-1.4701 -0.5202,-0.8075 -1.00168,-1.4681 -1.06993,-1.4681 -0.0682,0 -0.0784,0.7167 -0.0228,1.5927 0.0884,1.3884 0.0468,1.5927 -0.32455,1.5927 -0.23427,0 -0.47599,-0.083 -0.53718,-0.1838 z m 62.35836,-1.8503 c 1.72085,-1.1822 4.91247,-3.7108 5.53994,-4.389 0.53177,-0.5747 0.53664,-0.6167 0.11566,-0.9977 -0.8546,-0.7734 -6.83266,-2.9629 -10.57839,-3.8744 -7.25386,-1.7652 -11.3938,-2.2237 -20.35366,-2.2546 -9.80072989,-0.034 -15.2786099,0.643 -22.05275,2.7244 -4.06174,1.248 -8.086,3.0357 -8.086,3.5921 0,0.1769 1.29386,1.554 2.87526,3.06 2.16847,2.0652 2.99667,2.7094 3.36917,2.621 0.27164,-0.064 1.98247,-0.6307 3.8018201,-1.2584 7.32546,-2.5271 14.01124,-3.7987 19.9956699,-3.8032 8.44973,-0.01 16.76675,1.6432 22.14958,4.3927 1.01075,0.5163 1.89286,0.946 1.96025,0.9548 0.0674,0.01 0.63592,-0.3366 1.26345,-0.7677 z m -47.96253,-1.4299 c -0.32807,-0.5309 -1.51416,-4.5982 -1.38001,-4.7323 0.0741,-0.074 0.31504,-0.1348 0.53534,-0.1348 0.53287,0 2.0823,4.6758 1.6422,4.9558 -0.40148,0.2554 -0.59839,0.2335 -0.79753,-0.089 z m 1.26321,-2.6005 c -0.38296,-1.1793 -0.74445,-2.2719 -0.80331,-2.4282 -0.0589,-0.1563 0.12913,-0.3591 0.41778,-0.4507 0.40856,-0.1297 0.84675,0.1134 1.9779801,1.0973 0.79922,0.6951 1.45313,1.1633 1.45313,1.0404 0,-0.1229 -0.21102,-0.8368 -0.46894,-1.5865 -0.46492,-1.3513 -0.4648,-1.364 0.0149,-1.4895 0.26618,-0.07 0.53174,0 0.59018,0.1607 0.74107,2.0039 1.50478,4.5678 1.39371,4.6789 -0.39112,0.3911 -1.19455,0.023 -2.36462,-1.0837 -0.7125,-0.6738 -1.36154,-1.2252 -1.4423201,-1.2252 -0.0808,0 0.0701,0.6309 0.3354001,1.4019 0.49927,1.4511 0.47565,2.0286 -0.083,2.0286 -0.1918101,0 -0.6096901,-0.8775 -1.0210201,-2.144 z m 42.70414,1.6482 c -0.36379,-0.2124 -0.31719,-0.4614 0.46843,-2.5041 0.47982,-1.2476 0.90348,-2.308 0.94146,-2.3566 0.038,-0.049 0.79201,0.171 1.67556,0.4879 1.1514,0.4129 1.60652,0.6982 1.60652,1.0072 0,0.5258 -0.14344,0.5315 -1.48332,0.059 -0.84266,-0.2974 -1.09455,-0.3097 -1.2522,-0.061 -0.33667,0.5304 -0.23601,0.67 0.77528,1.0746 0.89767,0.3592 1.20158,0.7709 0.83761,1.1349 -0.0784,0.078 -0.51589,-0.014 -0.97223,-0.2042 -1.18514,-0.4952 -1.28293,-0.4567 -1.60954,0.6334 -0.31483,1.0508 -0.36882,1.0907 -0.98757,0.7294 z m -3.93921,-1.3564 c -1.11797,-0.6067 -1.48792,-1.9354 -0.94003,-3.3765 0.79373,-2.0876 3.61293,-2.2206 4.5645,-0.2153 0.52782,1.1123 0.17015,2.445 -0.89725,3.3432 -0.8393,0.7062 -1.73379,0.7877 -2.72722,0.2486 z m 2.14902,-1.1996 c 1.04202,-1.042 0.66658,-2.829 -0.59437,-2.829 -1.31714,0 -2.24095,1.9858 -1.37099,2.947 0.58657,0.6482 1.23828,0.6091 1.96536,-0.118 z m -35.0974899,1.0715 c -0.66905,-0.2475 -0.93337,-0.6903 -0.60689,-1.0168 0.18206,-0.1821 0.47499,-0.1696 0.98554,0.042 0.87174,0.361 1.82805,-0.019 1.70071,-0.6756 -0.0638,-0.3289 -0.36934,-0.414 -1.51108,-0.4209 -1.54019,-0.01 -2.114,-0.4072 -2.114,-1.4656 0,-1.3823 2.71819,-2.3201 3.52645,-1.2167 0.31263,0.4268 0.31028,0.5113 -0.0194,0.6966 -0.22761,0.1279 -0.59349,0.094 -0.93038,-0.086 -0.4265,-0.2282 -0.67944,-0.2307 -1.09083,-0.011 -0.90411,0.4838 -0.44291,0.8612 1.14687,0.9384 1.51752,0.074 1.83739,0.2529 2.12422,1.19 0.34807,1.1372 -1.85549,2.5271 -3.2113,2.0255 z m 4.70493001,-2.124 c -0.29078,-2.636 -0.33883,-2.7566 -1.09827001,-2.7566 -0.86504,0 -1.20036,-0.6751 -0.4269,-0.8594 0.29847,-0.071 1.25939001,-0.155 2.13537001,-0.1863 1.27768999,-0.046 1.59269999,0.016 1.59269999,0.3106 0,0.2188 -0.27267,0.399 -0.67383,0.4451 -0.60230999,0.069 -0.67229999,0.1734 -0.65923999,0.9801 0.008,0.4965 0.1001,1.4216 0.20458,2.0558 0.14802,0.8987 0.11333,1.1826 -0.15716,1.2864 -0.66734,0.2561 -0.76295,0.1231 -0.91725,-1.2757 z m 19.87420989,0.9835 -0.95101,-0.098 0.15253,-1.2697 c 0.0839,-0.6984 0.15348,-1.8486 0.15466,-2.5562 l 0.002,-1.2864 0.8234,0 c 0.45289,0 1.335,0.07 1.96025,0.1558 0.87605,0.1201 1.13684,0.2575 1.13684,0.5991 0,0.3818 -0.19534,0.4367 -1.40893,0.3955 -1.26149,-0.043 -1.40892,0 -1.40892,0.4423 0,0.4108 0.18825,0.5022 1.16389,0.5648 0.9714,0.062 1.1639,0.1549 1.1639,0.5597 0,0.4404 -0.11281,0.4701 -1.22515,0.3226 l -1.22516,-0.1625 0,0.7666 c 0,0.7659 0.002,0.7667 1.34767,0.7667 1.18431,0 1.34767,0.059 1.34767,0.49 0,0.5152 -0.52282,0.5685 -3.03377,0.3097 z m -16.6469599,-0.7623 c -0.0767,-0.3837 -0.216,-1.5415 -0.30945,-2.5728 -0.16094,-1.7759 -0.14364,-1.8752 0.32667,-1.8752 0.55444,0 0.66289,0.3889 0.93957,3.3692 0.15499,1.6692 0.13529,1.7765 -0.32616,1.7765 -0.34377,0 -0.53294,-0.2093 -0.63063,-0.6977 z m 3.16927,-0.4662 c -0.0756,-0.5054 -0.2081,-1.4426 -0.2944,-2.0828 -0.15285,-1.134 -0.17865,-1.1639 -1.00465,-1.1639 -0.67484,0 -0.83124,-0.087 -0.76685,-0.4288 0.11142,-0.5907 3.79991,-1.0701 4.12958,-0.5367 0.24618,0.3983 -0.13766,0.7112 -0.8794,0.7167 -0.48395,0 -0.49444,0.078 -0.27967,1.9944 0.17884,1.5952 0.15704,2.0325 -0.10975,2.2015 -0.55007,0.3485 -0.65124,0.2594 -0.79486,-0.7004 z m 4.3354799,0.6807 c -1.0047499,-0.422 -1.2516699,-1.1761 -1.0854899,-3.3148 0.0838,-1.0781 0.23503,-1.9327 0.33611,-1.899 0.10107,0.034 0.3510299,0.061 0.5554799,0.061 0.30708,0 0.36032,0.3456 0.30629,1.9885 -0.055,1.6707 0.003,2.0327 0.36338,2.2652 0.60927,0.3933 1.2709,-0.083 1.34855,-0.9705 0.26395,-3.0183 0.33204,-3.2832 0.84384,-3.2832 0.47683,0 0.49741,0.1095 0.39325,2.0938 -0.0863,1.6438 -0.21159,2.1956 -0.58291,2.5669 -0.56908,0.5691 -1.74099,0.8016 -2.4785,0.4918 z m 5.13096,-1.8446 0.12994,-2.0828 -0.70799,0 c -0.54461,0 -0.70797,-0.1131 -0.70797,-0.49 0,-0.4293 0.16336,-0.4901 1.31704,-0.4901 1.93912,0 2.88609,0.2363 2.7972,0.6979 -0.0476,0.2471 -0.33944,0.3901 -0.80797,0.3958 -0.6804,0.01 -0.73788,0.08 -0.79478,0.9891 -0.15537,2.4828 -0.31555,3.0628 -0.84582,3.0628 -0.48634,0 -0.50366,-0.095 -0.37965,-2.0827 z m -39.0724,1.3125 c 0.0529,-0.2748 -0.48957,-0.7077 -1.76211,-1.4061 -2.42483,-1.3308 -2.8634,-1.323 -1.81196,0.032 0.9123,1.176 1.27975,1.4639 2.15556,1.6888 0.89655,0.2302 1.33214,0.1335 1.41851,-0.315 z m 73.715679,-0.5949 c 0.78493,-0.8322 1.07938,-1.8793 0.61007,-2.1694 -0.28575,-0.1766 -2.48012,2.1826 -2.48012,2.6664 0,0.6768 1.0183,0.4062 1.87005,-0.497 z m -68.955639,-0.7356 c 0.43485,-0.9544 -0.18723,-2.5186 -1.24667,-3.1346 l -0.82632,-0.4805 -0.45262,0.5914 -0.45262,0.5914 -1.29388,-0.7078 c -2.75919,-1.5095 -3.24536,-1.7139 -4.02343,-1.6919 -0.44224,0.013 -0.93218,-0.1315 -1.08876,-0.3202 -0.15657,-0.1886 -0.53197,-0.343 -0.83421,-0.343 -0.65213,0 -1.61142,-0.7049 -2.91132,-2.1393 -0.52143,-0.5753 -1.10031,-1.0461 -1.28641,-1.0461 -0.41569,0 -0.41631,-0.037 0.0197,1.1982 0.48982,1.3883 1.43493,2.5653 2.77002,3.4496 1.32277,0.8762 2.48987,0.9862 2.68166,0.2528 0.19005,-0.7267 0.59701,-0.6031 1.67525,0.5089 1.47346,1.5196 3.07839,2.6155 4.80086,3.2782 1.97239,0.7588 2.12003,0.7583 2.46878,-0.01 z m 61.33756,-1.6647 c 1.3349,-0.6216 2.07257,-1.4971 2.07257,-2.4598 0,-0.9279 -0.37651,-0.9654 -1.32569,-0.132 -1.10452,0.9698 -1.40934,0.7794 -1.2215,-0.7629 0.17025,-1.3978 -0.0986,-1.554 -1.00031,-0.581 -0.94332,1.0178 -1.71206,3.8301 -1.18975,4.3524 0.32398,0.324 1.45337,0.1474 2.66468,-0.4167 z m 5.206459,-1.1127 c 0.50001,-0.2572 1.21864,-0.7936 1.59691,-1.1919 0.7164,-0.7544 1.51748,-2.8914 1.16542,-3.109 -0.11132,-0.069 -0.61434,0.1544 -1.11781,0.4961 -0.50346,0.3416 -0.97951,0.557 -1.05787,0.4787 -0.0784,-0.078 -0.007,-0.65 0.1591,-1.2703 0.34069,-1.2738 0.28833,-1.4184 -0.43091,-1.1901 -1.204989,0.3824 -2.746329,3.7941 -2.521049,5.5803 0.1048,0.8309 0.85528,0.9011 2.206209,0.2062 z m 4.83482,-0.2358 c 1.20246,-0.5462 3.16685,-2.6756 3.55593,-3.8546 0.15712,-0.476 0.22222,-0.929 0.14469,-1.0065 -0.0775,-0.078 -0.97546,0.7017 -1.99543,1.7317 -1.27896,1.2914 -2.03578,1.8725 -2.43876,1.8725 -0.91747,0 -1.71012,1.0328 -1.19105,1.5519 0.27103,0.271 0.88613,0.1767 1.92462,-0.295 z m -66.918599,-0.1804 c 1.26705,-0.4862 -0.50212,-4.2861 -2.61154,-5.6091 -0.59983,-0.3762 -0.68696,-0.3804 -0.81796,-0.039 -0.0843,0.2197 0.13462,0.7509 0.51474,1.2493 0.71735,0.9405 0.67851,1.782 -0.0689,1.4929 -1.09092,-0.4221 -1.76812,-0.4323 -1.92288,-0.029 -0.34917,0.9099 2.25142,2.7362 4.3552,3.0585 0.0901,0.014 0.33814,-0.042 0.55132,-0.1236 z m -6.06164,-1.7155 c 0.4317,-1.125 -1.58037,-4.7687 -2.44915,-4.4353 -0.32864,0.1261 -0.36052,0.2793 -0.16501,0.7935 0.13325,0.3505 0.24229,0.8635 0.24229,1.14 0,0.5493 -0.40045,0.5364 -1.86285,-0.06 -0.89972,-0.3668 -1.62401,-0.1719 -1.41223,0.38 0.2727,0.7107 3.78572,2.5337 4.93673,2.5619 0.30746,0.01 0.62706,-0.1636 0.71022,-0.3803 z m 13.7066701,-0.6959 c 0.25512,-0.6649 -0.68325,-1.726 -2.55729,-2.8918 -2.0928101,-1.302 -3.1521201,-1.5276 -2.8753101,-0.6126 0.34721,1.1478 0.287,1.284 -0.59969,1.3571 -1.44585,0.1192 -1.60054,0.2367 -1.07531,0.8171 0.97536,1.0778 2.71412,1.5845 5.6773301,1.6544 0.92504,0.022 1.33294,-0.071 1.43027,-0.3242 z m 41.8915699,0.1141 c 2.30946,-0.3002 4.36439,-1.0891 4.87775,-1.8726 0.22506,-0.3435 0.36877,-0.665 0.31937,-0.7144 -0.0494,-0.049 -0.83509,0.1808 -1.74594,0.5114 -2.60362,0.945 -3.66815,0.755 -2.72868,-0.4871 0.48729,-0.6442 0.45289,-1.1171 -0.0813,-1.1171 -0.58662,0 -2.24068,1.1092 -2.9264,1.9623 -0.8663,1.0779 -0.92369,1.4352 -0.2724,1.6961 0.72142,0.2889 0.51273,0.2872 2.55756,0.021 z m -22.75552,-0.3965 c 1.1058,-0.37 2.27508,-1.1876 2.27508,-1.5909 0,-0.1004 -1.1302,-0.1639 -2.51156,-0.1411 -1.38136,0.023 -3.2053899,-0.047 -4.0534199,-0.1557 -1.46864,-0.1877 -1.52825,-0.1753 -1.25541,0.2616 0.37083,0.5937 1.69857,1.5 2.58862,1.7667 1.0603499,0.3179 1.6732899,0.2887 2.9566899,-0.1406 z m 9.53936,-0.234 c 0.53105,-0.531 0.60059,-0.7623 0.45791,-1.5229 -0.27448,-1.4631 -0.80039,-2.216 -2.19442,-3.1416 -2.06252,-1.3694 -2.74716,-1.0053 -2.8071,1.4927 -0.0238,0.996 0.63544,2.3916 1.41462,2.9944 0.4027,0.3116 1.6035,0.741 2.1854,0.7815 0.17458,0.012 0.5992,-0.2597 0.94359,-0.6041 z m 31.422589,-0.4944 c 2.52222,-1.896 4.30617,-4.339 4.1467,-5.6787 -0.12416,-1.0432 -0.57952,-0.8991 -1.7024,0.5386 -1.29165,1.6539 -1.81768,1.7479 -2.05105,0.3666 -0.33491,-1.9824 -1.59718,-0.4528 -2.44521,2.9631 -0.39577,1.5941 -0.24324,2.931 0.33437,2.931 0.12475,0 0.89765,-0.5043 1.71759,-1.1206 z m -80.833659,0.02 c 0.72297,-0.8711 -0.51471,-4.8248 -2.01172,-6.4263 -0.68087,-0.7284 -0.97077,-0.4811 -0.8798,0.7506 0.0684,0.926 0.0197,1.0254 -0.53737,1.0969 -0.84222,0.108 -1.2252,0.6918 -1.2249,1.8672 2.3e-4,0.9427 0.0672,1.0328 1.28511,1.7296 1.16205,0.6649 2.51063,1.2805 2.91141,1.3291 0.0846,0.01 0.29035,-0.146 0.45727,-0.3471 z m 29.5206101,-1.5333 c 1.45409,-1.1763 2.03314,-2.171 2.07122,-3.5582 0.0281,-1.024 -0.87309,-1.3525 -2.25864,-0.8234 -3.38429,1.2925 -5.05562,3.9371 -3.27589,5.1837 0.95861001,0.6714 1.91585001,0.4498 3.46331,-0.8021 z m 44.4370799,-0.6087 c 1.158969,-0.5705 1.663069,-0.9757 1.895869,-1.5238 0.37328,-0.8788 0.11784,-1.2681 -0.58523,-0.8918 -0.27514,0.1472 -0.725259,0.2677 -1.000309,0.2677 -0.42491,0 -0.47796,-0.1104 -0.35302,-0.7351 0.12396,-0.6197 0.0705,-0.7351 -0.34061,-0.7351 -1.13356,0 -3.93483,3.0897 -3.97391,4.3831 -0.0172,0.5699 2.56745,0.1161 4.35721,-0.765 z m -15.43149,0.3826 c 1.42444,-0.2921 1.99967,-0.5495 2.7566,-1.2333 0.98632,-0.8911 1.30508,-1.7284 0.54727,-1.4376 -0.75104,0.2882 -2.39652,0.5897 -3.51126,0.6433 -3.38397,0.1627 -3.8277,-0.1974 -2.23845,-1.8167 1.2031,-1.2259 1.31059,-1.6776 0.33248,-1.3971 -1.32074,0.3788 -2.63969,1.2143 -3.76494,2.3848 -1.97461,2.0542 -1.78405,2.7365 0.84143,3.0131 2.43377,0.2563 3.12902,0.2347 5.03687,-0.1565 z m -15.30299,-1.9379 c 0.29879,-0.7787 0.13658,-2.0121 -0.34515,-2.6245 -0.92594,-1.1772 -2.51654,-1.3603 -4.24523,-0.4887 -0.60902,0.3071 -0.74705,0.3049 -1.1031,-0.017 -0.6387699,-0.5781 -1.7764699,-0.9264 -2.5040199,-0.7666 -0.76376,0.1677 -2.43511,1.7359 -2.43511,2.2847 0,0.4858 0.71748,1.2649 1.16483,1.2649 0.19458,0 0.66278,-0.3308 1.04045,-0.7351 0.71607,-0.7666 1.60245,-0.9438 2.45038,-0.49 0.3003499,0.1607 0.6741499,0.1628 1.0865099,0.01 0.97782,-0.3718 1.85378,0.066 1.85378,0.9271 0,0.9462 0.12656,1.027 1.60733,1.027 0.9417,0 1.31997,-0.1025 1.42933,-0.3875 z m -32.44033,-0.6077 c 0,-1.7616 -2.49419,-5.2463 -4.17426,-5.8319 -0.6472,-0.2257 -0.72635,-0.1999 -0.72635,0.2362 0,0.2693 0.16991,0.8181 0.37757,1.2196 0.43995,0.8508 0.30224,1.2058 -0.46771,1.2058 -0.30321,0 -0.75725,0.1506 -1.00899,0.3347 -0.40994,0.2998 -0.42388,0.4164 -0.13345,1.1176 0.6413,1.5482 2.33644,2.3225 5.33684,2.4376 0.73171,0.028 0.79635,-0.03 0.79635,-0.7196 z m 56.56668,0.472 c 1.37861,-0.24 1.76155,-0.4316 2.79533,-1.3986 1.15223,-1.0778 1.79426,-1.9367 1.59598,-2.135 -0.0519,-0.052 -0.9086,0.2371 -1.90381,0.6421 -2.197,0.8941 -2.51786,0.8381 -2.14571,-0.3745 0.3795,-1.2366 -0.005,-1.5908 -1.13998,-1.0497 -1.22368,0.5836 -3.15271,3.6477 -2.72851,4.3341 0.2082,0.3369 1.52614,0.33 3.5267,-0.018 z m -72.94187,-1.8092 c -0.0444,-0.6713 -0.24579,-1.8016 -0.44761,-2.5118 -0.20181,-0.7102 -0.33091,-1.3929 -0.28688,-1.5171 0.0749,-0.2114 2.5247,1.2472 3.42945,2.042 0.33262,0.2922 0.48755,0.3019 0.82944,0.052 0.39387,-0.288 0.39499,-0.3835 0.0177,-1.5117 -0.49377,-1.4765 -1.78893,-3.777 -2.12641,-3.777 -0.22251,0 -0.33745,0.2161 -0.60724,1.1417 -0.0575,0.1974 -0.35649,0.2224 -0.97936,0.082 -0.53436,-0.1205 -1.18432,-0.1018 -1.60889,0.046 -0.6198,0.216 -0.71235,0.3706 -0.71235,1.19 0,1.1496 -0.23079,1.3216 -1.13839,0.8483 -1.45736,-0.7601 -1.60373,-0.4642 -0.7075,1.4303 0.64933,1.3725 1.76663,2.6563 2.94853,3.3878 1.16856,0.7233 1.48345,0.5187 1.38952,-0.9025 z m 9.75937,0.6946 c 0,-0.9264 -0.83178,-2.5352 -1.99254,-3.8539 -1.23206,-1.3997 -1.82526,-1.5246 -1.30288,-0.2743 0.59989,1.4357 0.50148,1.6684 -0.62507,1.478 -0.76976,-0.13 -0.98012,-0.089 -0.98012,0.1904 0,0.6938 1.08234,1.7165 2.55292,2.4122 1.89865,0.8982 2.34769,0.9073 2.34769,0.048 z m 14.5354301,0.3163 c 0.91923,-0.1779 1.84001,-0.4921 2.0462,-0.6983 0.33648,-0.3364 0.33143,-0.4664 -0.0492,-1.2685 -0.23324,-0.4915 -1.02217,-1.4046 -1.75317,-2.0292 -1.10345,-0.9427 -1.50363,-1.1388 -2.3572201,-1.1556 -0.90561,-0.018 -1.03802,0.05 -1.11121,0.5677 -0.0457,0.3234 0.0595,0.8543 0.23371,1.1799 0.43552,0.8137 -0.0516,1.1036 -1.53404,0.9127 -1.33679,-0.1722 -2.65959,0.3719 -2.65959,1.0938 0,0.5843 0.35802,0.8419 1.71522,1.2345 0.60645,0.1754 1.2129,0.3519 1.34767,0.3923 0.59589,0.1786 2.58602,0.068 4.1216301,-0.2293 z m 6.88163,-2.9112 c 1.15672001,-2.1221 2.44266001,-5.397 3.34117,-8.5088 0.29183,-1.0108 0.68633,-2.3154 0.87667,-2.8991 1.26203,-3.8704 2.97474,-14.0247 3.76788,-22.3391 0.14785,-1.5498 0.37392,-3.6899 0.50239,-4.7558 0.38901,-3.2274 0.30646,-5.3767 -0.23285,-6.0624 -0.25655,-0.3261 -0.58531,-1.0344 -0.73059,-1.5739 -0.14525,-0.5394 -0.71933,-1.8587 -1.27573,-2.9317 -0.9414,-1.8155 -1.00327,-2.0561 -0.89156,-3.467 0.15356,-1.9396 0.68469,-2.7905 3.01578,-4.8317 1.60591,-1.4061 1.97054,-1.6156 2.81207,-1.6156 0.9132599,0 0.9668899,-0.041 0.9668899,-0.743 0,-0.4086 -0.16539,-1.1388 -0.3675399,-1.6226 -0.53684,-1.2849 -0.45458,-2.2277 0.3410799,-3.9096 1.07118,-2.2642 2.23174,-3.1386 2.23174,-1.6814 0,0.3248 0.24704,1.0626 0.54894,1.6395 0.66678,1.2741 0.65869,2.7814 -0.0243,4.514 -0.64298,1.6312 -0.40202,2.0481 1.18387,2.0481 0.97791,0 1.31954,0.1238 1.88681,0.6836 0.38097,0.3759 1.10959,0.9383 1.61916,1.2498 0.50956,0.3115 1.14201,0.9888 1.40542,1.5051 0.26343,0.5163 0.59079,1.0079 0.72747,1.0924 0.33782,0.2088 0.31408,2.0673 -0.0395,3.0897 -0.15842,0.4582 -0.70974,1.4528 -1.22516,2.2103 -0.51542,0.7576 -0.93714,1.6728 -0.93714,2.0337 0,0.361 -0.18622,1.0092 -0.41386,1.4405 -0.62593,1.186 -0.73237,9.6639 -0.21793,17.3558 0.22202,3.3195 0.44216,6.2415 0.48918,6.4933 0.047,0.2519 0.16253,1.1747 0.25667,2.0507 0.35645,3.3169 1.61252,10.0097 2.32235,12.374 1.43338,4.7746 2.47361,7.5104 3.24033,8.522 0.31112,0.4105 0.40193,0.3905 1.55362,-0.3416 1.39834,-0.889 4.30538,-2.1771 4.91335,-2.1771 0.22501,0 1.25101,-0.8065 2.27999,-1.7923 2.20042,-2.1081 3.46537,-3.1029 4.81313,-3.7855 0.64556,-0.327 1.18242,-0.8629 1.5669,-1.5641 0.32165,-0.5866 1.39587,-1.8542 2.38711,-2.8168 1.60669,-1.5602 1.80227,-1.8496 1.80227,-2.6669 0,-1.5096 0.52155,-2.7933 1.64041,-4.0378 0.82039,-0.9125 1.09355,-1.4372 1.21697,-2.3377 0.10573,-0.7713 0.39563,-1.4305 0.86344,-1.9633 0.62245,-0.7089 0.69831,-0.9682 0.65278,-2.2316 -0.0318,-0.8822 0.09,-1.7111 0.318099,-2.1647 0.21149,-0.4206 0.38683,-1.4952 0.40989,-2.5119 0.0221,-0.9772 0.17,-1.9844 0.32851,-2.2383 0.22876,-0.3663 0.20389,-0.6393 -0.12063,-1.3231 -0.55051,-1.1601 -0.51456,-2.2522 0.1171,-3.557 l 0.52596,-1.0865 -0.86995,-1.625 c -1.047709,-1.9569 -1.825749,-4.6543 -2.052549,-7.1157 -0.13827,-1.501 -0.32849,-2.0807 -1.0986,-3.3483 -0.51223,-0.8432 -1.14838,-2.1764 -1.41365,-2.9628 -0.26527,-0.7864 -0.62811,-1.4982 -0.80632,-1.5819 -0.17821,-0.084 -0.87535,-0.3986 -1.54918,-0.6999 -2.45962,-1.0999 -4.49548,-2.701 -6.22944,-4.8991 -1.58211,-2.0057 -1.74106,-2.134 -3.11921,-2.5171 -0.79871,-0.2221 -2.3299,-0.9051 -3.40267,-1.5179 -1.07279,-0.6128 -2.03792,-1.1149 -2.14475,-1.1159 -0.10684,0 -0.81005,-0.4705 -1.56271,-1.0432 -0.75268,-0.5728 -1.54737,-1.1732 -1.76601,-1.3344 -0.21864,-0.1612 -1.50017,-0.5857 -2.84784,-0.9435 -1.98303,-0.5264 -3.08111,-0.6611 -5.75822,-0.7062 -1.81935,-0.031 -3.59514,-0.1378 -3.94617,-0.238 -0.3999399,-0.1143 -1.4521699,0.012 -2.8178499,0.3379 -1.19879,0.286 -2.87502,0.5862 -3.72498,0.6669 -1.14735,0.1089 -1.7883,0.3227 -2.4885,0.8299 -2.02417999,1.4663 -3.98386,2.2651 -7.41585,3.0229 -0.4278,0.094 -1.03263,0.63 -1.68037,1.4879 -1.15008,1.5233 -2.8215001,2.8098 -4.7702101,3.6716 -0.97527,0.4313 -1.48273,0.8419 -1.88166,1.5227 -1.15182,1.9656 -2.7403,4.1285 -3.66578,4.9915 -0.71034,0.6624 -1.09161,1.3103 -1.44914,2.4628 -0.26686,0.8601 -1.08683,2.628 -1.82214,3.9285 -1.02222,1.8079 -1.33696,2.603 -1.33696,3.3773 0,0.5987 -0.25437,1.5147 -0.62226,2.2407 -0.44941,0.8869 -0.65489,1.7524 -0.73969,3.116 -0.18799,3.0229 -0.18731,3.3098 0.0105,4.2692 0.12894,0.6253 0.0636,1.291 -0.20852,2.1228 -0.39558,1.2094 -0.39489,1.2148 0.33677,2.6895 0.60898,1.2274 0.73313,1.7757 0.73313,3.2378 0,1.4616 0.12511,2.0145 0.73781,3.2604 0.43699,0.8885 0.81618,2.1496 0.93002,3.0929 0.17184,1.424 0.32694,1.7597 1.46457,3.1695 0.78079,0.9676 1.43914,2.1037 1.70406,2.9404 0.40622,1.2831 0.52013,1.4103 1.93075,2.1564 1.63545,0.865 2.83534,2.1576 4.09105,4.4074 0.70361,1.2605 0.99086,1.52 2.6231301,2.369 1.3622,0.7085 2.36797,1.5036 3.91578,3.0954 1.8641,1.9172 2.40931,2.3595 2.98879,2.4251 0.094,0.011 0.66827,-0.893 1.27614,-2.0081 z m 53.6357189,1.631 c 1.05562,-0.5337 2.37687,-1.5379 2.37687,-1.8065 0,-0.1197 -0.41349,-0.252 -0.91886,-0.2938 -0.87025,-0.072 -0.91495,-0.117 -0.84492,-0.8501 0.15481,-1.6206 -0.82756,-1.2461 -1.80827,0.6892 -1.14614,2.2618 -0.65264,3.1954 1.19518,2.2612 z m -30.614339,-0.5224 c -0.0915,-0.3706 -0.48746,-1.6662 -0.87983,-2.8791 -0.39236,-1.2129 -0.81002,-2.6463 -0.92812,-3.1854 -0.11808,-0.5391 -0.49965,-1.9144 -0.84786,-3.0564 -0.34824,-1.142 -0.78743,-3.0164 -0.97598,-4.1655 -0.18858,-1.1491 -0.50971,-3.0334 -0.71368,-4.1874 -0.5435,-3.0751 -1.12665,-9.855 -1.21564,-14.1336 -0.0427,-2.0543 -0.15192,-3.8093 -0.24261,-3.9 -0.1959,-0.1959 -0.21611,0.2974 -0.17725,4.3273 0.0446,4.629 0.46921,9.691 1.14057,13.5992 0.20835,1.2129 0.5309,3.2527 0.71678,4.533 0.7092,4.8846 2.46776,11.6855 3.38275,13.0819 0.5532,0.8443 0.95329,0.826 0.74087,-0.034 z m -20.89033989,0.1703 c 1.75164999,-0.9374 5.04629999,-13.2016 6.34853999,-23.632 0.25238,-2.0215 0.68964,-5.1509 0.97167,-6.9543 0.45622,-2.9174 0.49246,-3.783 0.14376,-3.4344 -0.0587,0.059 -0.39435,1.9792 -0.74583,4.2677 -0.92202,6.0034 -1.93008,11.0486 -2.98552,14.9421 -2.13495,7.8758 -2.82506,10.0947 -4.20200999,13.5112 -0.60554,1.5026 -0.49283,1.8147 0.46939,1.2997 z M 34.11628,321.90629 c 1.89612,-0.4666 2.46079,-0.7309 3.36917,-1.5769 0.93966,-0.8752 1.05093,-1.3955 0.24503,-1.1457 -1.21303,0.376 -1.65396,0.4225 -1.65396,0.1743 0,-0.1425 0.12105,-0.3339 0.26899,-0.4253 0.38333,-0.237 1.69125,-2.347 1.69125,-2.7285 0,-0.471 -0.92673,-0.3892 -2.11674,0.1869 -1.84601,0.8936 -4.77913,4.536 -4.41562,5.4833 0.17715,0.4617 0.83278,0.4697 2.61188,0.032 z M 18.074,321.01849 c 0.0873,-0.1412 -0.12457,-1.2162 -0.47077,-2.389 -1.68478,-5.7074 -3.09133,-17.0572 -3.09006,-24.9346 0,-3.1582 -0.0816,-4.2924 -0.33584,-4.6401 -0.32246,-0.441 -0.34544,-0.4353 -0.55132,0.1369 -0.46908,1.3039 -0.0458,10.8677 0.79091,17.8718 0.61596,5.1561 2.22728,12.8543 2.92773,13.9877 0.18502,0.2994 0.53379,0.2837 0.72935,-0.033 z m 42.951139,-0.4171 c 0.26341,-0.3706 0.80997,-1.5008 1.21461,-2.5115 0.40465,-1.0108 0.93159,-2.3102 1.17098,-2.8877 0.26179,-0.6314 0.34589,-1.1362 0.21097,-1.2666 -0.12335,-0.1192 -1.26636,-0.3949 -2.54006,-0.6126 -1.72205,-0.2943 -2.53873,-0.5638 -3.18539,-1.0511 -0.93693,-0.7061 -1.46198,-1.284 -1.4744,-1.6228 -0.009,-0.2369 -0.0893,-0.2592 3.30012,0.9116 3.26226,1.1267 4.53306,1.2447 4.53306,0.4209 0,-0.7564 -0.60885,-1.1633 -2.00528,-1.3402 -0.71644,-0.091 -2.30819,-0.4961 -3.53719,-0.9009 -1.82628,-0.6014 -2.51688,-0.9804 -3.77971,-2.074 -0.84984,-0.7359 -1.65193,-1.3381 -1.78241,-1.3381 -0.32802,0 -3.24778,-3.0678 -4.10357,-4.3117 -0.70025,-1.0177 -1.30868,-1.4427 -1.71036,-1.1944 -0.448649,0.2772 0.24807,1.3966 2.77896,4.4647 1.24811,1.513 1.55492,2.0215 1.21974,2.0215 -0.62444,0 -1.39925,-0.5665 -3.30529,-2.4168 -2.190209,-2.1261 -2.316499,-2.1858 -3.055829,-1.4465 -0.93587,0.9359 -0.60311,2.0162 1.31697,4.2755 1.116729,1.3141 1.503039,1.935 1.318629,2.1194 -0.18441,0.1844 -0.512209,0.017 -1.118879,-0.5709 -1.11376,-1.0795 -1.09441,-0.562 0.0431,1.1517 2.855029,4.3012 10.756799,10.8544 13.088239,10.8544 0.72865,0 1.02538,-0.1426 1.40302,-0.6739 z m -8.68874,-5.4062 c -2.47978,-2.0774 -3.76332,-3.3733 -3.76332,-3.7996 0,-0.6906 0.47695,-0.4688 1.79884,0.8367 0.69523,0.6866 1.90105,1.7527 2.67961,2.3691 1.33617,1.058 1.59397,1.5052 0.98477,1.7082 -0.1454,0.048 -0.91036,-0.453 -1.6999,-1.1144 z m -40.432459,5.2424 c 0.73399,-0.1912 1.78688,-0.2869 2.33975,-0.2128 l 1.00523,0.1349 0,-0.8303 c 0,-0.4566 -0.1118,-1.2154 -0.24846,-1.6862 -0.45541,-1.5689 -1.45492,-7.4321 -1.81678,-10.6572 -0.50834,-4.5308 -0.86194,-11.1604 -1.02596,-19.2349 -0.16586,-8.1663 -0.15043,-7.841 -0.37225,-7.841 -0.27054,0 -0.41472,1.0991 -0.57857,4.4106 -0.58763,11.8748 -2.3418999,24.8141 -4.4123899,32.5455 -0.8295,3.0974 -0.83364,3.0694 0.42966,2.8996 0.88118,-0.1184 2.09109,0.1731 3.2959599,0.794 0.0271,0.014 0.64984,-0.131 1.38381,-0.3222 z m 37.286419,-0.501 c 1.2314,-0.8755 1.80926,-1.6404 1.82435,-2.4147 0.008,-0.4161 -0.0383,-0.4121 -0.70299,0.061 -0.89848,0.6398 -1.50312,0.6458 -1.66763,0.017 -0.25532,-0.9763 -0.74735,-0.4524 -1.589149,1.6922 -0.23307,0.5938 -0.36625,1.1726 -0.29597,1.2864 0.27164,0.4395 1.287759,0.1712 2.431389,-0.6418 z m -43.8993789,-1.908 c 0.72078,-2.5189 1.11893,-4.2781 1.84381,-8.1473 1.80548,-9.6369 3.0326699,-22.8987 2.2334,-24.1355 -0.13065,-0.2021 -0.2378,-0.2573 -0.23812,-0.1225 -2.5e-4,0.1348 -0.0491,1.899 -0.10845,3.9205 -0.0921,3.1363 -0.27262,4.6084 -0.96179,7.841 -0.0575,0.2695 -0.17939,1.0965 -0.27093,1.8377 -0.74686,6.0473 -2.14089,13.7041 -3.18626,17.5006 -0.33108,1.2023 -0.54554,2.2774 -0.47656,2.389 0.3388,0.5482 0.82825,0.093 1.1649,-1.0835 z m 39.2390899,0.054 c 1.50753,-0.5632 3.552949,-2.3246 3.552949,-3.0597 0,-0.1998 -0.0276,-0.362 -0.0613,-0.3604 -0.0337,0 -0.66259,0.163 -1.397529,0.3586 -0.73495,0.1956 -1.377,0.3148 -1.42679,0.2651 -0.0498,-0.05 0.0272,-0.5144 0.17101,-1.0324 0.51343,-1.849 0.19269,-2.0078 -1.47697,-0.7313 -1.26527,0.9673 -3.11503,4.1812 -2.8316,4.9198 0.21379,0.5571 1.32397,0.4421 3.47019,-0.3597 z m -57.93362,0.2439 c 0.26069,-0.1395 0.47396,-0.4858 0.47396,-0.7696 0,-1.4427 -2.21843,-4.2702 -4.31396,-5.4982 -1.54298,-0.9043 -1.71869,-0.5682 -0.67694,1.2946 0.9577,1.7125 0.89994,2.0295 -0.37135,2.0377 -1.08117,0.01 -2.50269,0.5565 -2.42739,0.9384 0.28205,1.4307 5.64065,2.8935 7.31568,1.9971 z m -13.98687,-2.0129 c -0.005,-0.9062 -0.91497,-2.6631 -1.46615,-2.8295 -0.29663,-0.09 -0.30845,-0.048 -0.0613,0.2138 0.33255,0.3525 0.42046,1.2122 0.12251,1.1981 -0.10107,0 -0.45943,-0.1663 -0.79635,-0.3589 -0.79056,-0.4519 -1.47018,-0.4615 -1.47018,-0.021 0,0.3999 2.8184,2.5936 3.33219,2.5936 0.22475,0 0.34188,-0.275 0.33924,-0.7964 z m -9.82445,-0.052 c 1.12526,-0.3971 5.49713,-3.0032 6.98648,-4.1647 2.42485,-1.8912 5.53733,-5.2024 5.53733,-5.8909 0,-0.098 -0.72075,0.4952 -1.60166,1.3192 -0.88091,0.8241 -1.76302,1.4983 -1.96024,1.4983 -0.51165,0 -0.47219,-0.084 0.64758,-1.3777 1.05119,-1.2146 3.19616,-4.342 3.47329,-5.0642 0.0884,-0.2304 0.32959,-0.4189 0.53598,-0.4189 0.50692,0 0.49824,-1.3122 -0.012,-1.8225 -0.47732,-0.4773 -0.83786,-0.2887 -0.83786,0.4382 0,0.8364 -3.323,3.8346 -4.2499,3.8346 -0.57611,0 -0.50361,-0.3133 0.23112,-0.9987 0.73412,-0.6848 3.03866,-3.5311 3.03866,-3.7529 0,-0.4066 -0.63338,-0.012 -2.21861,1.3824 -5.07359,4.4626 -7.32989,5.6054 -13.42084,6.798 -1.25692,0.2461 -2.35955,0.5221 -2.45031,0.6132 -0.0908,0.091 0.0953,0.3767 0.41345,0.6347 1.19559,0.9692 4.52987,0.3633 7.46471,-1.3567 0.58631,-0.3436 1.27685,-0.6207 1.53455,-0.6159 0.39365,0.01 0.35105,0.1075 -0.26656,0.626 -1.01315,0.8507 -2.06995,1.3664 -4.73847,2.3122 l -2.28817,0.811 0.15998,1.1226 c 0.24265,1.7028 0.56189,2.7557 1.10184,3.6342 0.56257,0.9153 1.2679,1.0212 2.91971,0.4385 z m 5.66736,-4.849 c 0.002,-0.1685 0.54875,-0.6622 1.21407,-1.0972 1.51718,-0.992 1.95762,-0.6024 0.66167,0.5853 -0.89301,0.8183 -1.88403,1.0888 -1.87574,0.5119 z m 9.66862,3.9909 c 0.43868,-0.7097 -2.89827,-5.1548 -3.86977,-5.1548 -0.58361,0 -0.51672,0.2642 0.31257,1.2344 1.2449,1.4564 0.8418,1.8191 -1.21521,1.0934 -1.27218,-0.4489 -1.47018,-0.4559 -1.47018,-0.052 0,0.4615 2.86411,2.2683 4.28803,2.705 1.48207,0.4545 1.76559,0.4798 1.95456,0.174 z m 64.85572,-2.1671 c 1.00124,-1.0734 1.16896,-1.5175 0.57312,-1.5175 -0.4513,0 -0.45139,0.015 0.006,-1.0783 0.33513,-0.8021 0.33468,-0.9078 -0.004,-1.0379 -0.94526,-0.3628 -2.83435,1.226 -3.88553,3.2679 -0.72668,1.4115 -0.58922,1.6197 0.98341,1.4893 1.24355,-0.1032 1.48444,-0.2194 2.32779,-1.1235 z m -62.95004,-2.8039 c 0.15782,-1.0665 -0.4194,-2.9286 -1.19274,-3.8477 -0.96231,-1.1436 -1.31983,-0.9864 -1.31983,0.5806 0,1.46 -0.15557,1.6174 -1.40893,1.4257 -0.66859,-0.1022 -0.79635,-0.045 -0.79635,0.3576 0,1.0054 2.09301,2.245 3.83143,2.2693 0.68245,0.01 0.78174,-0.078 0.88642,-0.7855 z m 84.914209,-1.5492 c 1.94613,-1.3631 3.22798,-7.9067 1.59527,-8.1435 -0.41996,-0.061 -0.65102,0.2045 -1.21609,1.3967 -0.38367,0.8094 -0.83386,1.4773 -1.00041,1.4841 -0.16655,0.01 -0.58923,-0.4205 -0.93925,-0.9495 -0.74502,-1.1258 -1.27972,-1.3996 -1.77194,-0.9074 -0.28941,0.2894 -0.30776,0.6159 -0.10036,1.7855 0.45034,2.5396 1.87703,5.7194 2.56618,5.7194 0.17414,0 0.56411,-0.1734 0.8666,-0.3853 z m -3.7858,-1.4785 c 0.48016,-1.0069 0.22624,-1.5986 -0.61642,-1.4363 -1.19333,0.2298 -1.49616,1.028 -0.6943,1.8299 0.67129,0.6713 0.82495,0.6251 1.31072,-0.3936 z m -3.52418,-1.8253 c 1.31873,-1.5846 1.96843,-2.6679 1.96843,-3.2821 0,-0.5646 -0.50513,-0.4647 -1.79825,0.3553 -0.63752,0.4043 -1.19955,0.7351 -1.24892,0.7351 -0.0494,0 -0.31751,-0.3859 -0.59582,-0.8576 -1.06304,-1.8017 -2.00452,-0.6307 -1.51762,1.8876 0.59638,3.0845 1.36056,3.3626 3.19218,1.1617 z m -92.798269,-0.8106 c 0.36998,-0.3182 0.88113,-1.0623 1.13588,-1.6536 0.65164,-1.5125 1.1671,-4.3232 0.85084,-4.6395 -0.44306,-0.4431 -1.00899,0.017 -1.54096,1.2541 -0.28572,0.6642 -0.62576,1.2076 -0.75563,1.2076 -0.12986,0 -0.5798,-0.6089 -0.99985,-1.3532 -0.93783,-1.6618 -1.54692,-2.0687 -1.95502,-1.3062 -0.58926,1.1011 0.2917,4.3087 1.7432,6.3472 0.62048,0.8714 0.66994,0.876 1.52154,0.1436 z m -5.62337,-2.3388 c 0.57142,-1.2446 0.76727,-2.0714 0.85364,-3.6042 0.0808,-1.4337 0.0262,-2.0422 -0.19559,-2.1793 -0.38613,-0.2386 -1.06524,0.6275 -1.48192,1.8901 -0.16893,0.5118 -0.45379,0.9306 -0.63303,0.9306 -0.17924,0 -0.65086,-0.7167 -1.04805,-1.5927 -0.39719,-0.8759 -0.83546,-1.5927 -0.97394,-1.5927 -0.86227,0 -0.9946,2.4952 -0.25055,4.7246 0.56234,1.685 1.99138,3.4211 2.61806,3.1806 0.2034,-0.078 0.70353,-0.8687 1.11138,-1.757 z m 92.990149,-0.3164 c 0.47553,-0.4756 0.33826,-0.9311 -0.28056,-0.9311 -0.6042,0 -1.50356,0.7805 -1.22283,1.0612 0.2667,0.2667 1.18615,0.1871 1.50339,-0.1301 z m -81.838959,-0.4921 c 0.0439,-0.2302 -0.13995,-0.9152 -0.40848,-1.5223 -0.34768,-0.786 -0.67301,-1.1501 -1.13004,-1.2648 -0.353,-0.089 -0.71572,-0.087 -0.80606,0 -0.18219,0.1822 0.58428,2.5299 0.98941,3.0305 0.35085,0.4336 1.25698,0.2687 1.35517,-0.2466 z m 89.483909,-0.9453 c 0,-0.096 -0.88211,-0.6332 -1.96024,-1.1941 -1.81945,-0.9465 -2.41358,-1.485 -1.6385,-1.485 0.17699,0 1.52772,0.494 3.00163,1.0978 2.92289,1.1974 4.22369,1.3623 5.94784,0.754 1.57222,-0.5547 2.40993,-1.3024 2.72661,-2.4334 0.31342,-1.1194 0.15799,-4.7578 -0.21933,-5.1351 -0.14239,-0.1424 -0.75947,0.07 -1.62788,0.56 -2.30403,1.3003 -7.93182,2.5433 -7.64704,1.6889 0.0518,-0.1552 0.58472,-0.4216 1.18431,-0.5919 5.09254,-1.446 8.31861,-3.0153 8.31861,-4.0465 0,-0.8127 -0.68493,-0.8137 -2.28158,0 -3.27826,1.6639 -8.56636,2.1609 -13.11722,1.2327 -1.36423,-0.2782 -2.84056,-0.4711 -3.28076,-0.4288 -0.67609,0.065 -0.81279,0.1858 -0.88044,0.7773 -0.044,0.3851 0.0521,1.0194 0.21371,1.4094 0.24959,0.6026 0.21553,0.8912 -0.22621,1.9181 -0.61784,1.4362 -0.65342,2.1661 -0.14124,2.8974 0.70633,1.0084 4.86538,2.6913 7.58473,3.0691 1.18416,0.1645 4.043,0.1032 4.043,-0.087 z m -8.33104,-3.671 c 0,-0.3892 1.16402,-1.3869 2.68238,-2.2991 1.5911,-0.9558 2.36601,-1.2302 2.56503,-0.9081 0.0787,0.1272 -0.64159,0.6299 -1.60052,1.1171 -0.95895,0.4872 -2.05063,1.2145 -2.42597,1.6163 -0.68991,0.7386 -1.22092,0.9446 -1.22092,0.4738 z m -76.673289,0.3536 c 0.17949,-0.2162 0.37086,-1.0927 0.4253,-1.9477 0.0801,-1.2582 0.003,-1.7102 -0.40616,-2.3718 -0.44015,-0.7122 -0.47112,-0.9515 -0.24074,-1.8591 0.28685,-1.1301 -0.0643,-3.6738 -0.54855,-3.973 -0.14085,-0.087 -0.82938,0 -1.53007,0.1895 -0.98433,0.2687 -2.30466,0.3163 -5.80705,0.2094 -4.15545,-0.1268 -4.79832,-0.2091 -7.71718,-0.9885 -1.94291,-0.5187 -3.27218,-0.7621 -3.41001,-0.6242 -0.32692,0.3269 -0.2773,1.6243 0.0785,2.0531 0.16743,0.2017 0.98521,0.5982 1.81731,0.8811 1.98863,0.6761 3.66983,1.5205 3.78729,1.9023 0.14978,0.4869 -0.43746,0.3658 -2.65335,-0.5468 -2.61193,-1.0758 -3.04616,-1.0836 -3.66674,-0.066 -0.49981,0.8198 -0.65895,2.7193 -0.27813,3.3197 0.37351,0.5888 2.79836,1.0224 5.97778,1.0689 1.71828,0.025 3.12414,0.1369 3.12414,0.2482 0,0.1114 -0.31733,0.2026 -0.70517,0.2026 -0.99963,0 -2.60732,0.706 -2.30229,1.011 0.39703,0.3971 2.7077,0.8902 5.58028,1.191 1.48243,0.1553 2.91586,0.3147 3.1854,0.3544 0.26953,0.04 1.4965,0.087 2.72659,0.1056 1.78263,0.027 2.30276,-0.047 2.56283,-0.3599 z m -4.37289,-2.0636 c -0.36933,-0.5427 -1.24977,-1.7281 -1.95655,-2.6341 -1.3072,-1.6758 -1.4821,-2.015 -1.03914,-2.015 0.70575,0 4.57133,4.9265 4.26037,5.4296 -0.25174,0.4074 -0.60432,0.1898 -1.26468,-0.7805 z m 91.214949,-4.9161 c 3.60489,-0.9721 6.00325,-2.433 6.00325,-3.6568 0,-0.3866 -0.10291,-0.7664 -0.22871,-0.8442 -0.1258,-0.078 -1.09061,0.2961 -2.14402,0.8308 -2.52996,1.2841 -7.12801,2.5609 -8.43018,2.3409 -1.38697,-0.2343 -1.2153,-0.7568 0.31541,-0.9598 1.90511,-0.2527 6.96105,-2.0173 8.30957,-2.9001 1.03143,-0.6753 1.20379,-0.9096 1.34078,-1.8232 0.16425,-1.0952 -0.0225,-2.5738 -0.41836,-3.3136 -0.24506,-0.4579 -1.31089,-0.5952 -1.55497,-0.2002 -0.22515,0.3643 -6.53004,5.0338 -7.413,5.4902 -1.44914,0.749 -4.09091,1.5796 -5.94854,1.8701 -3.03683,0.475 -2.98016,0.4546 -2.89501,1.0444 0.0758,0.5251 0.32112,0.6902 2.28244,1.5361 1.70654,0.736 8.79539,1.1209 10.78134,0.5854 z m -88.946089,-4.0703 c 0.67384,-0.2509 1.22516,-0.6043 1.22516,-0.7855 0,-0.1811 -0.77185,-0.6285 -1.71522,-0.9942 -3.63384,-1.4084 -10.16876,-5.0402 -10.16876,-5.6513 0,-0.4187 -3.55724,-2.4636 -4.16224,-2.3927 -0.80371,0.094 -1.28099,1.1145 -1.32031,2.8224 -0.0274,1.1888 0.0478,1.4008 0.70445,1.9855 0.65656,0.5846 3.52378,1.7203 5.32941,2.1108 0.37061,0.08 0.67384,0.3091 0.67384,0.5087 0,0.4681 0.0507,0.4732 -2.81842,-0.2816 -3.19262,-0.8398 -4.04057,-0.8721 -4.30585,-0.1638 -0.52224,1.3943 2.46074,2.6497 7.24395,3.0487 1.61564,0.1347 2.95705,0.2647 2.98092,0.2887 0.0239,0.024 1.18291,0.025 2.57566,0 1.78176,-0.029 2.89536,-0.1769 3.75741,-0.4978 z m 79.443149,-0.2291 c 0.10279,-0.3127 -1.16953,-0.8242 -2.05005,-0.8242 -0.56607,0 -0.81336,0.6611 -0.40136,1.0731 0.27304,0.273 2.34908,0.062 2.45141,-0.2489 z m -77.976369,-1.9585 c 0.21952,-0.2195 0.33765,-0.5593 0.26253,-0.7551 -0.0751,-0.1958 -0.13661,-0.4021 -0.13661,-0.4585 0,-0.1975 -0.71791,-0.1 -1.33614,0.1819 -0.7717,0.3516 -0.80459,0.8841 -0.0728,1.1782 0.77047,0.3097 0.83411,0.3024 1.283,-0.1465 z m 80.503779,-1.1323 c 0.62189,-1.0092 0.53995,-1.7509 -0.20509,-1.8565 -0.76616,-0.1086 -1.27293,0.3662 -1.27293,1.1927 0,1.6206 0.69588,1.9331 1.47802,0.6638 z m -3.59913,-2.0215 c 0.64352,-1.6954 0.92516,-5.651 0.4683,-6.5773 -0.43527,-0.8825 -0.56906,-0.7355 -1.03319,1.1353 -0.46534,1.8758 -0.89919,2.0317 -1.84707,0.6639 -0.9255,-1.3355 -1.44641,-1.2251 -1.545649,0.3275 -0.0581,0.9099 0.0952,1.5454 0.668269,2.77 1.60022,3.4196 2.46214,3.86 3.28934,1.6806 z m -79.509739,-0.2946 c 0.9463,-0.7218 1.73767,-2.2824 1.74551,-3.4421 0.005,-0.7743 0.31135,-1.0474 0.61796,-0.5513 0.26483,0.4285 1.299,0.2643 1.92947,-0.3063 0.408,-0.3693 0.77657,-1.1792 1.11628,-2.453 0.79718,-2.9891 0.67538,-3.3987 -0.67327,-2.2638 -0.4004,0.3369 -0.83614,0.6125 -0.96831,0.6125 -0.28485,0 -0.55941,-1.2006 -0.42591,-1.8625 0.47817,-2.3709 0.23648,-2.853 -0.85036,-1.6961 -0.70842,0.7541 -1.20009,3.1796 -1.0388,5.1247 0.10284,1.2401 0.0458,1.4811 -0.48829,2.063 -0.3326,0.3625 -0.8505,1.0173 -1.1509,1.4553 -0.65409,0.9537 -1.15919,1.0141 -1.5375,0.1838 -0.864,-1.8963 -2.18882,0.9 -1.41457,2.9857 0.53595,1.4437 1.38917,1.4845 3.13869,0.1501 z m 86.736209,0.3559 c 0.6384,-2.0942 0.49224,-4.6116 -0.29794,-5.1316 -0.45835,-0.3017 -0.88693,0.3276 -0.88693,1.3023 0,0.5226 -0.0935,0.9502 -0.20774,0.9502 -0.28152,0 -2.865,-2.7257 -3.01961,-3.1858 -0.18274,-0.5438 -0.93817,0.1398 -0.93817,0.8489 0,0.9445 1.43348,3.4582 2.71398,4.7591 1.49836,1.5222 2.27087,1.656 2.63641,0.4569 z m -46.367479,-2.0777 c -0.0814,-0.081 -0.13935,0.063 -0.12869,0.3216 0.0118,0.2855 0.0698,0.3435 0.14803,0.1481 0.0708,-0.1769 0.0621,-0.3883 -0.0194,-0.4697 z m -47.48371,-1.1388 c 0.83985,-0.5652 1.42023,-0.7911 1.83091,-0.7126 0.89107,0.1704 1.87413,-0.4471 3.53008,-2.2173 2.0554,-2.1973 3.76657,-5.7988 2.75512,-5.7988 -0.14283,0 -0.84263,0.5513 -1.55511,1.2251 -0.71248,0.6738 -1.4226,1.2252 -1.57804,1.2252 -0.15543,0 -0.28261,-0.3138 -0.28261,-0.6972 0,-0.3834 -0.20351,-0.8813 -0.45224,-1.1063 -0.42437,-0.3841 -0.49418,-0.3763 -1.13233,0.1256 -0.91885,0.7228 -1.40784,1.9555 -1.5798,3.9824 l -0.14354,1.692 -1.67494,0.023 c -0.92122,0.013 -1.76675,-0.087 -1.87897,-0.2227 -0.11221,-0.1353 -0.2406,-0.6315 -0.2853,-1.1027 -0.0647,-0.6814 -0.19818,-0.8731 -0.6528,-0.9375 -0.86537,-0.1226 -1.51124,0.609 -1.51124,1.7118 0,0.8265 0.17256,1.1082 1.40228,2.2898 0.77125,0.7411 1.53202,1.3475 1.69059,1.3475 0.15857,0 0.84164,-0.3724 1.51794,-0.8275 z m 96.701719,0.3497 c 0.0791,-0.128 -0.0731,-0.3488 -0.33821,-0.4907 -0.57545,-0.308 -1.02364,0.1589 -0.48193,0.502 0.43839,0.2777 0.64326,0.2749 0.82014,-0.011 z m -51.7704189,-0.4247 c -0.17688,-0.071 -0.38822,-0.062 -0.46965,0.019 -0.0814,0.082 0.0633,0.1394 0.32161,0.1287 0.28546,-0.012 0.3435,-0.07 0.14804,-0.148 z m 54.4574089,-1.2968 c 0.46648,-0.1773 0.62852,-0.4144 0.62852,-0.9196 0,-1.2453 -1.3054,-5.2122 -1.71521,-5.2122 -0.0915,0 -0.27997,-0.2493 -0.41883,-0.5541 -0.13886,-0.3048 -0.54965,-0.7131 -0.91289,-0.9075 -0.57614,-0.3084 -0.6889,-0.308 -0.8839,0 -0.2795,0.4454 -0.0848,1.0936 0.65752,2.1895 0.31788,0.4693 0.57798,1.0353 0.57798,1.2578 0,0.3673 -0.0935,0.3723 -1.01744,0.054 -0.55958,-0.1928 -1.40988,-0.3729 -1.88953,-0.4002 -0.94165,-0.053 -1.19546,0.3291 -0.91458,1.3787 0.21431,0.8008 3.56772,2.9481 5.21452,3.3391 0.0249,0.01 0.32815,-0.097 0.67384,-0.2283 z m -54.8695489,-0.7426 c 0.24469,-0.2704 0.37272,-0.5637 0.28453,-0.6519 -0.1787,-0.1787 -1.14348,0.6114 -1.14348,0.9364 0,0.3577 0.39665,0.2263 0.85898,-0.2845 z m 5.4476699,-0.1677 c -0.22783,-0.2278 -0.48303,-0.3454 -0.5671,-0.2613 -0.24116,0.2411 0.12906,0.6755 0.57572,0.6755 0.37404,0 0.37336,-0.032 -0.009,-0.4142 z m 42.240669,-1.9136 c 0.0882,-0.5391 0.1084,-1.9173 0.0449,-3.0629 -0.11433,-2.0623 -0.44397,-2.9606 -1.65192,-4.5015 -0.47502,-0.6059 -1.74295,-0.3639 -1.4929,0.285 0.0887,0.2302 0.31104,1.0592 0.49406,1.8422 0.42297,1.8097 0.10845,2.0057 -1.51941,0.9468 -0.63155,-0.4108 -1.23677,-0.6922 -1.34498,-0.6254 -0.35353,0.2185 -0.20683,1.5627 0.27189,2.4915 0.81397,1.5792 3.57514,3.8152 4.53968,3.6762 0.37245,-0.054 0.53882,-0.3193 0.65867,-1.0519 z m -6.94449,-2.9777 c 0.35495,-1.3324 0.4205,-2.0669 0.27341,-3.0629 -0.26162,-1.7715 -0.63689,-2.926 -1.14515,-3.5231 -1.14388,-1.3439 -2.454669,-1.6357 -2.002239,-0.4457 0.12707,0.3342 0.23103,1.2198 0.23103,1.9679 0,1.4869 0.0463,1.4642 -1.61781,0.7941 -1.09112,-0.4394 -1.56758,-0.1728 -1.56758,0.8771 0,1.8012 1.87909,4.3772 3.846089,5.2725 1.19595,0.5443 1.38389,0.3661 1.98225,-1.8799 z m -37.682309,1.753 c 3.04279,-2e-4 4.44811,-0.092 4.8393,-0.3153 0.91999,-0.5255 2.01663,-2.7057 2.01925,-4.0144 0.003,-1.5585 -0.15366,-1.8636 -1.24331,-2.4195 -1.6603,-0.847 -3.20772,-0.4501 -2.03608,0.5222 0.30244,0.2511 0.35875,0.5821 0.24285,1.4278 -0.3365,2.4549 -3.60225,4.2109 -5.75805,3.0961 -0.3776199,-0.1953 -1.0430699,-0.7611 -1.4788299,-1.2574 -0.72255,-0.823 -0.78207,-1.0127 -0.67626,-2.1565 0.0638,-0.6899 0.15586,-1.4748 0.20457,-1.7443 0.0732,-0.4048 -0.0629,-0.5028 -0.78208,-0.5632 -1.1293,-0.095 -2.01332,0.5926 -2.39349,1.8614 -0.43723,1.4594 -0.3624,1.9925 0.54578,3.8875 0.85119,1.7762 1.20948,2.1304 1.86077,1.84 0.20215,-0.09 2.29716,-0.1641 4.6555799,-0.1644 z m -47.12968,-1.7368 c 2.4841,-1.6367 5.61695,-5.247 4.5531,-5.247 -0.10246,0 -1.06548,0.3822 -2.14004,0.8493 -1.19595,0.5199 -2.04161,0.7615 -2.18025,0.6229 -0.13865,-0.1387 0.11455,-1.2269 0.65279,-2.8057 0.61451,-1.8025 0.79605,-2.6306 0.60286,-2.75 -0.3909,-0.2416 -3.17297,2.8703 -4.061,4.5425 -1.45644,2.7425 -2.2048,5.9588 -1.44791,6.2229 0.55182,0.1925 2.73076,-0.5852 4.02045,-1.4349 z m 49.4694,-1.8621 c 0.91622,-1.0141 1.05985,-1.6769 0.4696,-2.1668 -0.30428,-0.2526 -0.62348,-0.2528 -1.67184,0 -1.11548,0.2676 -1.39957,0.2572 -2.04199,-0.075 -0.67065,-0.3468 -1.7739199,-0.3525 -2.3249699,-0.012 -0.11053,0.068 -0.20095,0.463 -0.20095,0.8772 0,0.5453 0.24023,0.9795 0.87143,1.5748 1.6410599,1.5477 3.3859299,1.4776 4.8987199,-0.1969 z m -34.4878,-0.5478 c 1.12251,-0.591 2.91422,-2.6493 3.48906,-4.0085 0.30099,-0.7116 0.47291,-1.3682 0.38203,-1.4591 -0.0909,-0.091 -0.51942,-0.021 -0.95227,0.1548 -0.43284,0.1761 -1.04958,0.3797 -1.37057,0.4525 -0.58342,0.1324 -0.58354,0.132 -0.40457,-1.5392 0.21119,-1.9721 0.35536,-2.8225 0.52505,-3.097 0.0681,-0.1103 0.73173,-0.4881 1.47466,-0.8395 1.31126,-0.6203 2.55932,-1.9359 2.92268,-3.0807 0.24606,-0.7753 -0.004,-0.7705 -1.41772,0.027 -2.21895,1.2523 -2.5051,0.8632 -0.91622,-1.2457 0.88164,-1.1703 0.93629,-1.3192 0.50888,-1.3869 -1.58403,-0.2508 -5.66212,3.8496 -5.66212,5.6932 0,0.4601 0.74842,0.876 1.5766,0.876 0.84509,0 0.79219,0.2371 -0.23604,1.0574 -0.47558,0.3795 -1.13275,1.1146 -1.46038,1.6336 -0.45203,0.7161 -0.71436,0.9126 -1.08779,0.815 -0.32211,-0.084 -0.9082,0.1767 -1.69659,0.7554 -0.66244,0.4863 -1.38266,0.8842 -1.60044,0.8842 -0.53897,0 -0.50003,-0.8496 0.0995,-2.1708 0.26657,-0.5875 0.48467,-1.1112 0.48467,-1.1639 0,-0.2905 -1.49103,-0.031 -1.91437,0.3331 -1.43042,1.2305 -2.54257,5.658 -1.7009,6.7714 0.3355,0.4438 0.39809,0.4457 1.59699,0.048 1.73508,-0.5763 3.14694,-1.6687 4.05993,-3.1412 l 0.7762,-1.2518 0.13585,1.8193 c 0.13053,1.7476 0.49185,2.842 1.06473,3.2245 0.38338,0.256 0.5759,0.2326 1.32317,-0.1608 z m 78.773589,-3.2049 c -0.029,-0.4042 -0.60513,-1.8535 -1.28019,-3.2207 -0.95635,-1.9368 -1.453,-2.6517 -2.24879,-3.2369 -0.98602,-0.7251 -3.48627,-1.5026 -3.80552,-1.1834 -0.0857,0.086 0.33795,0.7374 0.94146,1.4482 2.42695,2.8584 2.40485,3.2527 -0.18245,3.2527 -0.86912,0 -1.58023,0.073 -1.58023,0.1632 0,0.332 1.9624,1.7027 3.34812,2.3385 1.57183,0.7214 3.60658,1.2885 4.37034,1.2183 0.38463,-0.035 0.4787,-0.2032 0.43729,-0.7799 z m -45.509669,0.3464 c 0.28639,-0.4634 -0.30749,-0.7771 -1.52784,-0.8072 -0.88321,-0.022 -1.1807,0.061 -1.1807,0.3275 0,0.5979 2.37547,1.0186 2.70854,0.4797 z m 29.64029,-1.1425 c -0.0947,-0.5054 -0.33701,-1.3599 -0.53843,-1.899 -0.20139,-0.5391 -0.52919,-1.4212 -0.72842,-1.9602 -0.59874,-1.6201 -1.35814,-2.5563 -2.28352,-2.8153 -1.09122,-0.3053 -1.37474,-0.028 -1.01793,0.9955 0.3689,1.0583 0.34831,1.9423 -0.0452,1.9423 -0.1764,0 -0.9616,-0.3859 -1.74491,-0.8576 -0.78332,-0.4717 -1.46597,-0.8576 -1.51701,-0.8576 -0.0511,0 -0.0928,0.2601 -0.0928,0.578 0,0.7123 1.67958,2.6658 3.04239,3.5386 1.94927,1.2484 3.94857,2.2431 4.51957,2.2486 0.53642,0.01 0.56604,-0.061 0.40633,-0.9133 z m 5.116709,-3.8313 c -0.18517,-1.4999 -0.49109,-2.0281 -1.967839,-3.3975 -0.61741,-0.5725 -1.50564,-1.3947 -1.97387,-1.827 -1.01225,-0.9346 -1.69407,-1.1933 -2.14936,-0.8155 -0.27532,0.2285 -0.23523,0.3828 0.22984,0.8846 0.6286,0.6783 1.24789,2.0056 1.03503,2.2185 -0.076,0.076 -0.64372,0.03 -1.26156,-0.1014 -0.61787,-0.1318 -1.17071,-0.1631 -1.22851,-0.07 -0.15604,0.2525 0.64087,1.3769 1.39782,1.9724 0.71476,0.5622 4.61589,2.4551 5.05983,2.4551 0.148589,0 0.270179,0.1238 0.270179,0.2751 0,0.1887 0.11663,0.1782 0.37156,-0.033 0.28514,-0.2366 0.33557,-0.5998 0.21688,-1.5614 z m -62.276059,0.5859 c 2.68205,-0.9427 3.95702,-1.8549 5.1200801,-3.6634 0.65745,-1.0223 0.93369,-2.2186 0.51231,-2.2186 -0.10355,0 -0.722,0.4411 -1.3743501,0.9801 -0.65234,0.5391 -1.26725,0.9802 -1.36646,0.9802 -0.0992,0 -0.37994,-0.2206 -0.62387,-0.4901 -0.60383,-0.6672 -1.13667,-0.6156 -1.89654,0.1838 -0.73078,0.7687 -2.3915,3.621 -2.3915,4.1073 0,0.178 0.13783,0.3792 0.30629,0.4472 0.16846,0.068 0.31011,0.1323 0.31479,0.143 0.005,0.011 0.63434,-0.2007 1.39925,-0.4695 z m -12.92419,-1.5446 c 2.57728,-0.9815 4.49752,-2.1288 5.39371,-3.2225 0.5081,-0.62 0.84921,-1.2019 0.75806,-1.2931 -0.0912,-0.091 -1.01152,0.2527 -2.0452,0.7642 -1.14241,0.5653 -2.38819,0.9825 -3.17677,1.0639 -1.48195,0.1529 -1.53356,0.061 -0.9298,-1.6499 0.46134,-1.3076 0.47778,-1.2251 -0.24432,-1.2251 -1.27405,0 -2.91629,2.0661 -3.93991,4.9569 -0.27283,0.7705 -0.26959,0.968 0.0207,1.2583 0.28958,0.2896 0.56988,0.2947 1.76387,0.032 0.78076,-0.1715 1.86063,-0.4798 2.3997,-0.6851 z m 39.29347,-0.5604 c 0.60312,0.3727 0.6214,-2.3795 0.0218,-3.2869 -0.20698,-0.3133 -0.31455,-0.2821 -0.72794,0.2109 -0.35953,0.4287 -0.48509,0.9414 -0.48509,1.9806 0,1.5494 0.20078,1.966 0.65081,1.3506 0.16319,-0.2232 0.40635,-0.338 0.54039,-0.2552 z m 21.59501,-2.2455 c -0.002,-0.8718 -0.58484,-1.7345 -2.46648,-3.6514 -1.02893,-1.0482 -1.81641,-1.629 -2.40931,-1.7768 -2.60517,-0.6497 -2.75199,-0.5774 -1.34973,0.664 0.48332,0.4279 0.83166,0.9169 0.7741,1.0865 -0.11881,0.3502 -1.82048,0.4049 -3.06178,0.099 -1.24512,-0.3074 -1.01886,0.3954 0.49006,1.522 1.80365,1.3467 3.13853,1.9686 5.03732,2.347 2.66353,0.5307 2.9877,0.4992 2.98582,-0.2899 z m -36.5076399,-1.7579 c 1.72291,-0.6524 3.43177001,-2.0587 3.01723001,-2.4829 -0.22317,-0.2285 -0.54593,-0.2329 -1.39491001,-0.019 -0.60748,0.153 -1.28908,0.2782 -1.51466,0.2782 -0.41848,0 -0.4176,-0.03 0.0548,-1.899 0.12271,-0.4854 0.0462,-0.5513 -0.64041,-0.5513 -0.42885,0 -0.99304,0.1141 -1.2537,0.2536 -0.57754,0.3091 -0.59601,0.1604 -0.0782,-0.6298 0.44361,-0.677 0.48901,-0.6578 -1.43274,-0.6069 -0.77251,0.021 -1.51649,-0.032 -1.65327,-0.1164 -0.1505,-0.093 -0.007,-0.5092 0.36321,-1.0542 0.33652,-0.4953 0.61186,-0.9851 0.61186,-1.0886 0,-0.353 -1.83535,-0.1785 -2.81785,0.268 -1.1856301,0.5387 -3.9957101,3.3132 -4.2065301,4.1531 -0.11495,0.458 -0.01,0.7116 0.43478,1.0494 0.52931,0.4021 0.55355,0.4986 0.24915,0.9925 -0.30237,0.4906 -0.28056,0.593 0.21092,0.991 0.62029,0.5023 1.60225,0.5859 1.86615,0.159 0.0968,-0.1567 0.2452,-0.623 0.32971,-1.0362 0.13384,-0.6544 0.28605,-0.7738 1.1812201,-0.9266 0.86425,-0.1476 1.58506,-0.4263 3.58987,-1.3882 0.12367,-0.059 -0.0278,0.301 -0.3366,0.8006 -0.98073,1.5869 -1.51985,2.8705 -1.36979,3.2615 0.19962,0.5202 2.95972,0.2853 4.78976,-0.4076 z m 53.8938789,0.3066 c 0.23966,-0.2091 -0.54169,-2.4459 -1.11854,-3.2021 -0.33689,-0.4417 -1.02185,-1.0119 -1.52218,-1.2672 -0.9862,-0.5031 -5.108959,-1.407 -5.344259,-1.1717 -0.0794,0.079 0.0888,0.4407 0.37364,0.8029 0.2849,0.3621 0.518,0.7539 0.518,0.8705 0,0.3471 -1.99933,0.234 -3.1854,-0.1802 -0.62647,-0.2188 -1.46033,-0.3275 -1.93091,-0.2517 -0.99912,0.1608 -1.72989,-0.1966 -3.21101,-1.5706 -1.65567,-1.536 -2.22218,-1.8692 -3.49541,-2.0557 -1.16426,-0.1705 -1.65613,0.1604 -0.69289,0.4661 0.54409,0.1727 2.22433,1.958 2.22433,2.3634 0,0.1921 -0.55286,0.2213 -1.866,0.098 -1.50765,-0.1413 -1.8478,-0.1115 -1.77123,0.155 0.16638,0.5791 5.8157,3.1803 7.22245,3.3255 1.53649,0.1586 2.54055,-0.059 2.54055,-0.55 0,-0.5106 0.82303,-0.452 2.03334,0.1447 3.58266,1.7662 8.327059,2.8065 9.225519,2.0229 z m -69.297969,-3.3121 c 3.31666,-1.6465 5.68806,-3.874 4.12425,-3.874 -0.27401,0 -1.01829,0.262 -1.65395,0.5821 -1.05616,0.532 -3.23575,1.1331 -4.10818,1.1331 -0.63456,0 -0.3777,-0.7219 0.65584,-1.8432 l 1.01132,-1.0971 -0.88329,0 c -1.10148,0 -3.46814,1.2225 -4.41236,2.2792 -0.38509,0.431 -0.96417,1.335 -1.28683,2.0088 l -0.58667,1.2252 0.54654,0.4522 c 0.44987,0.3722 0.87652,0.4372 2.41267,0.3674 1.64089,-0.074 2.14548,-0.2234 4.18066,-1.2337 z m 23.8573501,-0.5542 c 0,-0.7291 -1.72411,-1.7898 -2.86071,-1.76 -0.58021,0.015 -0.93727,0.1429 -0.93727,0.3351 0,0.3743 -1.07231999,0.4094 -1.73130999,0.057 -0.26069,-0.1395 -0.47396,-0.1574 -0.47396,-0.04 0,0.315 2.56695999,1.5171 3.75310999,1.7574 1.5655,0.3173 2.25014,0.2109 2.25014,-0.3495 z m 16.2344699,0.035 c 0.63948,-0.3111 1.6065,-0.8481 2.14894,-1.1935 1.25287,-0.7976 3.40321,-2.8768 3.1928,-3.0872 -0.0878,-0.088 -0.5127,0.1985 -0.9442,0.6363 -1.23789,1.256 -3.36868,2.72 -3.74733,2.5747 -0.55011,-0.2111 -0.40506,-0.5265 0.4441,-0.9656 1.31069,-0.6778 3.61153,-3.0557 4.65347,-4.8093 0.99759,-1.679 1.41816,-1.8977 1.41816,-0.7377 l 0,0.6443 0.48916,-0.5251 c 0.26904,-0.2888 0.66001,-1.0283 0.86885,-1.6434 0.31808,-0.9368 0.32807,-1.2259 0.0616,-1.7819 -0.17495,-0.365 -0.59349,-0.7401 -0.93009,-0.8335 -0.3366,-0.093 -1.22814,-0.3441 -1.98122,-0.557 -1.45229,-0.4107 -3.05884,-0.5104 -3.24967,-0.2016 -0.0631,0.1021 -0.19325,0.6259 -0.28921,1.1639 -0.14373,0.8059 -0.11741,0.9243 0.14928,0.672 0.59554,-0.5634 0.77905,-0.3157 0.66276,0.8948 -0.19186,1.9965 -3.72493,8.8451 -4.56309,8.8451 -0.10254,0 -0.30959,-0.1231 -0.46006,-0.2736 -0.20147,-0.2014 -0.4131,-0.1436 -0.80255,0.2192 -0.56857,0.5297 -0.51577,0.6162 0.73198,1.1984 0.84636,0.395 0.84104,0.3956 2.14634,-0.2393 z m -7.86215,-1.23 c 1.19029,-1.3024 2.94581,-4.2427 2.6874,-4.5011 -0.075,-0.075 0.0203,-0.4392 0.21168,-0.8093 0.1914,-0.3701 0.29764,-0.7233 0.23609,-0.7849 -0.0616,-0.062 0.0619,-0.6973 0.27443,-1.4128 0.54549,-1.8369 0.55595,-3.7812 0.0235,-4.3695 -0.25964,-0.2869 -1.06177,-0.5847 -2.07154,-0.7692 -0.90632,-0.1655 -2.03378,-0.3794 -2.50546,-0.4752 -0.51065,-0.1039 -1.29467,-0.046 -1.93792,0.1432 -0.59418,0.1746 -1.8835299,0.3175 -2.8652199,0.3175 -1.5667,0 -1.83153,0.067 -2.16634,0.5446 -0.53649,0.766 -0.48675,3.3874 0.0998,5.2581 0.50202,1.6013 2.06034,5.19 2.68284,6.1785 0.64193,1.0193 2.2083299,1.9856 3.2189099,1.9856 0.79741,0 1.07637,-0.1725 2.11185,-1.3055 z m -4.6219099,-2.3073 c -1.21011,-1.4025 -2.16369,-4.9778 -1.78615,-6.6968 0.28539,-1.2994 0.72331,-0.6365 0.91536,1.3858 0.10135,1.0672 0.47281,2.7451 0.82546,3.7286 0.66609,1.8575 0.67925,2.3172 0.0453,1.5824 z m 4.5895699,-0.369 c 0.0904,-0.3032 0.42829,-1.0114 0.75075,-1.5736 0.32246,-0.5623 0.80223,-1.9264 1.06615,-3.0314 0.52954,-2.2172 0.66264,-2.4737 1.00793,-1.9425 0.4676,0.7194 -0.42615,3.9301 -1.66486,5.9808 -0.71732,1.1876 -1.45234,1.5467 -1.15997,0.5667 z m -13.24252989,0.4945 c -0.37801,-0.5752 -0.86902,-1.3215 -1.09114,-1.6584 -0.64571001,-0.9795 -1.51792001,-3.6288 -1.43412001,-4.356 0.053,-0.4596 0.21029,-0.6565 0.50569,-0.6331 0.36356001,0.029 0.42881001,-0.1848 0.42881001,-1.4043 0,-1.3067 -0.0529,-1.4515 -0.57778001,-1.5832 -0.31778,-0.08 -1.00693,0.038 -1.53145,0.2605 -0.52451,0.2231 -1.67037,0.6286 -2.54635,0.9011 -0.87599,0.2725 -1.73053,0.6077 -1.89899,0.7449 -0.43784,0.3565 -0.36884,1.6207 0.15089,2.7647 0.49023,1.0792 2.83481,3.7622 3.07881,3.5233 0.084,-0.082 -0.19683,-0.8327 -0.62417,-1.6677 -0.54321,-1.0613 -0.69951,-1.5956 -0.51944,-1.7757 0.18005,-0.18 0.3489,-0.087 0.56115,0.3097 0.50689,0.9472 2.60452,3.4971 3.30563,4.0184 1.12714001,0.8382 2.67983,1.7809 2.78213,1.6892 0.0537,-0.048 -0.21164,-0.5582 -0.58966999,-1.1334 z m 40.69140989,0.034 c 0.0912,-0.1476 -0.0677,-0.5841 -0.35308,-0.9702 -0.28542,-0.386 -0.51893,-0.8137 -0.51893,-0.9505 0,-0.1368 -0.31126,-0.4096 -0.69167,-0.6064 -0.38044,-0.1967 -0.84247,-0.5393 -1.02673,-0.7613 -0.18426,-0.2221 -0.9725,-0.7255 -1.75162,-1.1188 -1.1883,-0.5999 -1.71159,-0.7151 -3.24688,-0.7151 -1.00663,0 -1.8947,0.1043 -1.9735,0.2318 -0.12641,0.2045 1.28717,0.7433 1.95973,0.7469 0.38524,0 3.05521,1.7243 3.05521,1.9707 0,0.119 -0.45056,0.3513 -1.00122,0.5163 l -1.00124,0.3 0.90958,0.4666 c 1.6925,0.8683 5.30177,1.4378 5.64035,0.89 z m -51.82158,-1.5903 c 1.5458701,-0.4512 2.5091101,-1.0062 2.3087501,-1.3304 -0.0772,-0.1249 -0.68518,-0.2994 -1.351,-0.3878 -0.6658401,-0.088 -1.4005201,-0.2994 -1.6326101,-0.4691 -0.38774,-0.2835 -0.35456,-0.3854 0.40903,-1.2551 0.7362901,-0.8386 0.7782101,-0.9566 0.36776,-1.0356 -0.25475,-0.049 -1.27594,0.1657 -2.26927,0.4772 -1.32094,0.4142 -1.93734,0.7507 -2.29474,1.2527 -0.27833,0.3908 -0.36852,0.6863 -0.20952,0.6863 0.15353,0 -0.14065,0.3959 -0.65375,0.8798 -0.89558,0.8447 -0.91401,0.8937 -0.46068,1.2252 0.65142,0.4763 4.09419,0.4506 5.78603,-0.043 z m 38.20798,0.01 c 0,-0.059 -0.11026,-0.108 -0.24503,-0.108 -0.13477,0 -0.24503,0.1167 -0.24503,0.2594 0,0.1428 0.11026,0.1914 0.24503,0.1081 0.13477,-0.083 0.24503,-0.2001 0.24503,-0.2595 z"
       style="fill:#0c0c0c" />
  </g>
</svg>
